<?xml version="1.0" encoding="UTF-8"?>
<svg xmlns="http://www.w3.org/2000/svg" version="1.1" viewBox="0 0 2413.5 2035.6">
  <defs>
    <style>
      .cls-1 {
        font-family: ABCDailyBETA-Regular, 'ABC Daily BETA';
        font-size: 31.2px;
      }

      .cls-1, .cls-2 {
        fill: blue;
      }

      .cls-1, .cls-3 {
        isolation: isolate;
      }

      .cls-4, .cls-5, .cls-6, .cls-7, .cls-8, .cls-9, .cls-10 {
        fill: none;
      }

      .cls-4, .cls-5, .cls-10 {
        stroke-linecap: round;
      }

      .cls-4, .cls-6 {
        stroke-miterlimit: 10;
      }

      .cls-4, .cls-6, .cls-7, .cls-8, .cls-9, .cls-10 {
        stroke: blue;
      }

      .cls-4, .cls-6, .cls-10 {
        stroke-width: 7px;
      }

      .cls-5 {
        stroke: #fff;
      }

      .cls-5, .cls-8 {
        stroke-width: 4.4px;
      }

      .cls-5, .cls-9, .cls-10 {
        stroke-linejoin: round;
      }

      .cls-7 {
        stroke-miterlimit: 10;
      }

      .cls-7, .cls-9 {
        stroke-width: 7px;
      }

      .cls-2, .cls-11 {
        stroke-width: 0px;
      }

      .cls-8 {
        stroke-dasharray: 0 0 17.5 8.7;
      }

      .cls-11 {
        fill: #fff;
      }
    </style>
  </defs>
  <g id="Background">
    <path class="cls-8" d="M2345.8,828.7l1.2-119.4c.3-20.2-15.9-36.8-36.2-37.1-.2,0-.4,0-.5,0h-414.1c-20.5,0-37.1,16.6-37.1,37.1v81.4c0,20.5,14.6,45.1,32.5,55l93.3,51.3c18,9.9,32.5,34.5,32.5,55v387.1c0,20.5-16.6,37.1-37.1,37.1h-271.9c-20.5,0-37.1-16.6-37.1-37.1v-387.2c0-20.5,14.5-45.2,32.3-55.3l80.3-45.2c17.8-10.1,32.3-34.8,32.3-55.3v-167.3c0-20.4-16.6-37-37-37,0,0,0,0,0,0l-408.1.9c-20.5,0-37.2-16.5-37.3-37l-1.3-222.3c-.1-20.5-16.8-37.1-37.3-37.1h-312.6c-20.5,0-37.1,16.6-37.1,37.1v185.8c0,20.5-16.6,37.1-37.1,37.1h-467.2c-20.1,0-36.5,16.2-36.6,36.4,0,.2,0,.5,0,.7l2.8,196.5c.3,20.5-14.4,44.3-32.8,53.3l-115.2,55.8c-18.4,9-33.4,32.8-33.4,53.3v386.7c0,20.5,16.6,37.1,37.1,37.1h334.2c20.5,0,37.1-16.6,37.1-37.1v-386.2c0-20.5-14.7-44.9-32.7-54.6l-96.9-51.8c-18.1-9.7-32.7-34.1-32.7-54.5v-145.9c0-20.5,16.6-37.1,37.1-37.1h360.5c20.5,0,49.7,10.8,65.3,24.1l186.9,159.9"/>
    <path class="cls-2" d="M1169.2,1630.4c3.4,0,6.2-2.8,6.2-6.2s-2.8-6.2-6.2-6.2-6.2,2.8-6.2,6.2c0,3.4,2.8,6.1,6.2,6.2"/>
    <path class="cls-2" d="M1090.4,1669.8c3.4,0,6.2-2.8,6.2-6.2,0-3.4-2.8-6.2-6.2-6.2-3.4,0-6.2,2.8-6.2,6.2h0c0,3.4,2.8,6.2,6.2,6.2"/>
    <path class="cls-2" d="M968,1734.1c3.4,0,6.2-2.8,6.2-6.2,0-3.4-2.8-6.2-6.2-6.2s-6.2,2.8-6.2,6.2h0c0,3.4,2.8,6.2,6.2,6.2"/>
    <path class="cls-2" d="M1108.2,1847.8c3.4,0,6.2-2.8,6.2-6.2s-2.8-6.2-6.2-6.2-6.2,2.8-6.2,6.2c0,3.4,2.8,6.1,6.2,6.2"/>
    <path class="cls-2" d="M1173.3,1860.6c3.4,0,6.2-2.8,6.2-6.2s-2.8-6.2-6.2-6.2c-3.4,0-6.2,2.8-6.2,6.2h0c0,3.4,2.8,6.2,6.2,6.2"/>
    <path class="cls-2" d="M1299.8,1729.9c3.4,0,6.2-2.8,6.2-6.2s-2.8-6.2-6.2-6.2c-3.4,0-6.2,2.8-6.2,6.2h0c0,3.4,2.8,6.2,6.2,6.2"/>
    <path class="cls-2" d="M1368.2,1756.9c3.4,0,6.2-2.8,6.2-6.2s-2.8-6.2-6.2-6.2-6.2,2.8-6.2,6.2c0,3.4,2.8,6.1,6.2,6.2"/>
    <path class="cls-2" d="M1401.4,1862.6c3.4,0,6.2-2.8,6.2-6.2s-2.8-6.2-6.2-6.2-6.2,2.8-6.2,6.2c0,3.4,2.8,6.1,6.2,6.2"/>
    <path class="cls-2" d="M1386.9,1914.5c3.4,0,6.2-2.8,6.2-6.2s-2.8-6.2-6.2-6.2-6.2,2.8-6.2,6.2c0,3.4,2.8,6.1,6.2,6.2"/>
    <path class="cls-2" d="M1268.7,1785.9c3.4,0,6.2-2.8,6.2-6.2s-2.8-6.2-6.2-6.2-6.2,2.8-6.2,6.2c0,3.4,2.8,6.1,6.2,6.2"/>
    <path class="cls-2" d="M1319.2,1754.8c3.4,0,6.2-2.8,6.2-6.2s-2.8-6.2-6.2-6.2-6.2,2.8-6.2,6.2c0,3.4,2.8,6.1,6.2,6.2"/>
    <path class="cls-2" d="M1283.2,1667.7c3.4,0,6.2-2.8,6.2-6.2s-2.8-6.2-6.2-6.2-6.2,2.8-6.2,6.2c0,3.4,2.8,6.1,6.2,6.2"/>
    <path class="cls-2" d="M1326.8,1609.7c3.4,0,6.2-2.8,6.2-6.2,0-3.4-2.8-6.2-6.2-6.2-3.4,0-6.2,2.8-6.2,6.2h0c0,3.4,2.8,6.2,6.2,6.2"/>
    <path class="cls-2" d="M1316.4,1584.8c3.4,0,6.2-2.8,6.2-6.2s-2.8-6.2-6.2-6.2-6.2,2.8-6.2,6.2c0,3.4,2.8,6.1,6.2,6.2"/>
    <path class="cls-2" d="M1151.7,1579.7c3.4,0,6.2-2.8,6.2-6.2s-2.8-6.2-6.2-6.2-6.2,2.8-6.2,6.2c0,3.4,2.8,6.1,6.2,6.2"/>
    <path class="cls-2" d="M1017.8,1572.3c3.4,0,6.2-2.8,6.2-6.2,0-3.4-2.8-6.2-6.2-6.2-3.4,0-6.2,2.8-6.2,6.2,0,3.4,2.8,6.1,6.2,6.2"/>
    <path class="cls-2" d="M997.1,1570.3c3.4,0,6.2-2.8,6.2-6.2,0-3.4-2.8-6.2-6.2-6.2s-6.2,2.8-6.2,6.2h0c0,3.4,2.8,6.2,6.2,6.2"/>
    <path class="cls-2" d="M985.7,1660.8c3.4,0,6.2-2.8,6.2-6.2s-2.8-6.2-6.2-6.2-6.2,2.8-6.2,6.2c0,3.4,2.8,6.1,6.2,6.2"/>
    <path class="cls-2" d="M1007.4,1680.2c3.4,0,6.2-2.8,6.2-6.2s-2.8-6.2-6.2-6.2-6.2,2.8-6.2,6.2c0,3.4,2.8,6.1,6.2,6.2"/>
    <path class="cls-2" d="M1075.8,1632.5c3.4,0,6.2-2.8,6.2-6.2s-2.8-6.2-6.2-6.2-6.2,2.8-6.2,6.2c0,3.4,2.8,6.1,6.2,6.2"/>
    <path class="cls-2" d="M1131.8,1597.2c3.4,0,6.2-2.8,6.2-6.2s-2.8-6.2-6.2-6.2-6.2,2.8-6.2,6.2c0,3.4,2.8,6.1,6.2,6.2"/>
    <path class="cls-2" d="M1048.9,1667.7c3.4,0,6.2-2.8,6.2-6.2s-2.8-6.2-6.2-6.2-6.2,2.8-6.2,6.2c0,3.4,2.8,6.1,6.2,6.2"/>
    <path class="cls-2" d="M959.7,1790.1c3.4,0,6.2-2.8,6.2-6.2s-2.8-6.2-6.2-6.2-6.2,2.8-6.2,6.2c0,3.4,2.8,6.1,6.2,6.2"/>
    <path class="cls-2" d="M847.8,1835.7c3.4,0,6.2-2.8,6.2-6.2,0-3.4-2.8-6.2-6.2-6.2s-6.2,2.8-6.2,6.2h0c0,3.4,2.8,6.2,6.2,6.2"/>
    <path class="cls-2" d="M851.9,1924.8c3.4,0,6.2-2.8,6.2-6.2s-2.8-6.2-6.2-6.2-6.2,2.8-6.2,6.2h0c0,3.4,2.8,6.2,6.2,6.2"/>
    <path class="cls-2" d="M895.5,1964.2c3.4,0,6.2-2.8,6.2-6.2s-2.8-6.2-6.2-6.2-6.2,2.8-6.2,6.2c0,3.4,2.8,6.1,6.2,6.2"/>
    <path class="cls-2" d="M936.9,1960.1c3.4,0,6.2-2.8,6.2-6.2,0-3.4-2.8-6.2-6.2-6.2s-6.2,2.8-6.2,6.2h0c0,3.4,2.8,6.2,6.2,6.2"/>
    <path class="cls-2" d="M924.5,1904.1c3.4,0,6.2-2.8,6.2-6.2s-2.8-6.2-6.2-6.2-6.2,2.8-6.2,6.2c0,3.4,2.8,6.1,6.2,6.2"/>
    <path class="cls-2" d="M936.5,1878.9c3.4,0,6.2-2.8,6.2-6.2s-2.8-6.2-6.2-6.2-6.2,2.8-6.2,6.2c0,3.4,2.8,6.1,6.2,6.2"/>
    <path class="cls-2" d="M1001.2,1837.8c3.4,0,6.2-2.8,6.2-6.2s-2.8-6.2-6.2-6.2-6.2,2.8-6.2,6.2c0,3.4,2.8,6.1,6.2,6.2"/>
    <path class="cls-2" d="M1125.6,1949.7c3.4,0,6.2-2.8,6.2-6.2s-2.8-6.2-6.2-6.2-6.2,2.8-6.2,6.2c0,3.4,2.8,6.1,6.2,6.2"/>
    <path class="cls-2" d="M1293.6,1987.1c3.4,0,6.2-2.8,6.2-6.2s-2.8-6.2-6.2-6.2-6.2,2.8-6.2,6.2c0,3.4,2.8,6.1,6.2,6.2"/>
    <path class="cls-2" d="M1360.4,1951.4c3.4,0,6.2-2.8,6.2-6.2s-2.8-6.2-6.2-6.2-6.2,2.8-6.2,6.2c0,3.4,2.8,6.1,6.2,6.2"/>
    <path class="cls-2" d="M1432.5,1947.7c3.4,0,6.2-2.8,6.2-6.2s-2.8-6.2-6.2-6.2-6.2,2.8-6.2,6.2h0c0,3.4,2.8,6.2,6.2,6.2"/>
    <path class="cls-2" d="M1436.6,1980.8c3.4,0,6.2-2.8,6.2-6.2s-2.8-6.2-6.2-6.2-6.2,2.8-6.2,6.2c0,3.4,2.8,6.1,6.2,6.2"/>
    <path class="cls-2" d="M1333,1839.8c3.4,0,6.2-2.8,6.2-6.2s-2.8-6.2-6.2-6.2-6.2,2.8-6.2,6.2c0,3.4,2.8,6.1,6.2,6.2"/>
    <path class="cls-2" d="M1407.6,1829.5c3.4,0,6.2-2.8,6.2-6.2,0-3.4-2.8-6.2-6.2-6.2-3.4,0-6.2,2.8-6.2,6.2h0c0,3.4,2.8,6.2,6.2,6.2"/>
    <path class="cls-2" d="M1313.4,1791.1c3.4,0,6.2-2.8,6.2-6.2s-2.8-6.2-6.2-6.2-6.2,2.8-6.2,6.2c0,3.4,2.8,6.1,6.2,6.2"/>
    <path class="cls-2" d="M1324.7,1659.4c3.4,0,6.2-2.8,6.2-6.2s-2.8-6.2-6.2-6.2-6.2,2.8-6.2,6.2c0,3.4,2.8,6.1,6.2,6.2"/>
    <path class="cls-2" d="M1335,1626.3c3.4,0,6.2-2.8,6.2-6.2s-2.8-6.2-6.2-6.2-6.2,2.8-6.2,6.2c0,3.4,2.8,6.1,6.2,6.2"/>
    <path class="cls-2" d="M1238.2,1597.8c3.4,0,6.2-2.8,6.2-6.2s-2.8-6.2-6.2-6.2-6.2,2.8-6.2,6.2c0,3.4,2.8,6.1,6.2,6.2"/>
    <path class="cls-2" d="M1229.3,1640.8c3.4,0,6.2-2.8,6.2-6.2s-2.8-6.2-6.2-6.2c-3.4,0-6.2,2.8-6.2,6.2h0c0,3.4,2.8,6.2,6.2,6.2"/>
    <path class="cls-2" d="M1225.2,1744.4c3.4,0,6.2-2.8,6.2-6.2s-2.8-6.2-6.2-6.2c-3.4,0-6.2,2.8-6.2,6.2,0,3.4,2.8,6.1,6.2,6.2"/>
    <path class="cls-2" d="M1183.7,1817c3.4,0,6.2-2.8,6.2-6.2s-2.8-6.2-6.2-6.2-6.2,2.8-6.2,6.2h0c0,3.4,2.8,6.2,6.2,6.2"/>
    <path class="cls-2" d="M1043.9,1822.1c3.4,0,6.2-2.8,6.2-6.2s-2.8-6.2-6.2-6.2c-3.4,0-6.2,2.8-6.2,6.2,0,3.4,2.8,6.1,6.2,6.2"/>
    <path class="cls-2" d="M1034.4,1788c3.4,0,6.2-2.8,6.2-6.2,0-3.4-2.8-6.2-6.2-6.2-3.4,0-6.2,2.8-6.2,6.2h0c0,3.4,2.8,6.2,6.2,6.2"/>
    <path class="cls-2" d="M1175.4,1740.3c3.4,0,6.2-2.8,6.2-6.2,0-3.4-2.8-6.2-6.2-6.2-3.4,0-6.2,2.8-6.2,6.2h0c0,3.4,2.8,6.2,6.2,6.2"/>
    <path class="cls-2" d="M1204.4,1788c3.4,0,6.2-2.8,6.2-6.2,0-3.4-2.8-6.2-6.2-6.2-3.4,0-6.2,2.8-6.2,6.2h0c0,3.4,2.8,6.2,6.2,6.2"/>
    <path class="cls-2" d="M1078.5,1699.4c3.4,0,6.2-2.8,6.2-6.2s-2.8-6.2-6.2-6.2c-3.4,0-6.2,2.8-6.2,6.2,0,3.4,2.8,6.1,6.2,6.2"/>
    <path class="cls-2" d="M1015.7,1721.6c3.4,0,6.2-2.8,6.2-6.2s-2.8-6.2-6.2-6.2-6.2,2.8-6.2,6.2c0,3.4,2.8,6.1,6.2,6.2"/>
    <path class="cls-2" d="M860.2,1719.6c3.4,0,6.2-2.8,6.2-6.2s-2.8-6.2-6.2-6.2-6.2,2.8-6.2,6.2c0,3.4,2.8,6.1,6.2,6.2"/>
    <path class="cls-2" d="M910,1649.1c3.4,0,6.2-2.8,6.2-6.2s-2.8-6.2-6.2-6.2-6.2,2.8-6.2,6.2c0,3.4,2.8,6.1,6.2,6.2"/>
    <path class="cls-2" d="M949.4,1605.5c3.4,0,6.2-2.8,6.2-6.2,0-3.4-2.8-6.2-6.2-6.2s-6.2,2.8-6.2,6.2h0c0,3.4,2.8,6.2,6.2,6.2"/>
    <path class="cls-2" d="M980.5,1576.5c3.4,0,6.2-2.8,6.2-6.2s-2.8-6.2-6.2-6.2-6.2,2.8-6.2,6.2c0,3.4,2.8,6.1,6.2,6.2"/>
    <path class="cls-2" d="M956.8,1579.7c3.4,0,6.2-2.8,6.2-6.2s-2.8-6.2-6.2-6.2-6.2,2.8-6.2,6.2c0,3.4,2.8,6.1,6.2,6.2"/>
    <path class="cls-2" d="M1080,1577.2c3.4,0,6.2-2.8,6.2-6.2s-2.8-6.2-6.2-6.2-6.2,2.8-6.2,6.2c0,3.4,2.8,6.1,6.2,6.2"/>
    <path class="cls-2" d="M1036.5,1615.9c3.4,0,6.2-2.8,6.2-6.2,0-3.4-2.8-6.2-6.2-6.2-3.4,0-6.2,2.8-6.2,6.2h0c0,3.4,2.8,6.2,6.2,6.2"/>
    <path class="cls-2" d="M862.3,1765.2c3.4,0,6.2-2.8,6.2-6.2,0-3.4-2.8-6.2-6.2-6.2s-6.2,2.8-6.2,6.2h0c0,3.4,2.8,6.2,6.2,6.2"/>
    <path class="cls-2" d="M957.7,1848.1c3.4,0,6.2-2.8,6.2-6.2s-2.8-6.2-6.2-6.2-6.2,2.8-6.2,6.2h0c0,3.4,2.8,6.2,6.2,6.2"/>
    <path class="cls-2" d="M955.6,1877.2c3.4,0,6.2-2.8,6.2-6.2,0-3.4-2.8-6.2-6.2-6.2s-6.2,2.8-6.2,6.2h0c0,3.4,2.8,6.2,6.2,6.2"/>
    <path class="cls-2" d="M1067.6,1767.3c3.4,0,6.2-2.8,6.2-6.2s-2.8-6.2-6.2-6.2-6.2,2.8-6.2,6.2c0,3.4,2.8,6.1,6.2,6.2"/>
    <path class="cls-2" d="M1158.8,1792.1c3.4,0,6.2-2.8,6.2-6.2s-2.8-6.2-6.2-6.2-6.2,2.8-6.2,6.2c0,3.4,2.8,6.1,6.2,6.2"/>
    <path class="cls-2" d="M1115.2,1897.9c3.4,0,6.2-2.8,6.2-6.2s-2.8-6.2-6.2-6.2-6.2,2.8-6.2,6.2c0,3.4,2.8,6.1,6.2,6.2"/>
    <path class="cls-2" d="M1121.5,1933.1c3.4,0,6.2-2.8,6.2-6.2s-2.8-6.2-6.2-6.2-6.2,2.8-6.2,6.2c0,3.4,2.8,6.1,6.2,6.2"/>
    <path class="cls-2" d="M1233.4,1945.6c3.4,0,6.2-2.8,6.2-6.2s-2.8-6.2-6.2-6.2-6.2,2.8-6.2,6.2c0,3.4,2.8,6.1,6.2,6.2"/>
    <path class="cls-2" d="M1274.9,1974.6c3.4,0,6.2-2.8,6.2-6.2s-2.8-6.2-6.2-6.2-6.2,2.8-6.2,6.2c0,3.4,2.8,6.1,6.2,6.2"/>
    <path class="cls-2" d="M1318.4,1970.5c3.4,0,6.2-2.8,6.2-6.2s-2.8-6.2-6.2-6.2-6.2,2.8-6.2,6.2c0,3.4,2.8,6.1,6.2,6.2"/>
    <path class="cls-2" d="M1372.4,1937.3c3.4,0,6.2-2.8,6.2-6.2s-2.8-6.2-6.2-6.2-6.2,2.8-6.2,6.2h0c0,3.4,2.8,6.2,6.2,6.2"/>
    <path class="cls-2" d="M1324.7,1883.4c3.4,0,6.2-2.8,6.2-6.2,0-3.4-2.8-6.2-6.2-6.2-3.4,0-6.2,2.8-6.2,6.2h0c0,3.4,2.8,6.2,6.2,6.2"/>
    <path class="cls-2" d="M1384.8,1767.3c3.4,0,6.2-2.8,6.2-6.2s-2.8-6.2-6.2-6.2c-3.4,0-6.2,2.8-6.2,6.2,0,3.4,2.8,6.1,6.2,6.2"/>
    <path class="cls-2" d="M1372.4,1694.7c3.4,0,6.2-2.8,6.2-6.2s-2.8-6.2-6.2-6.2-6.2,2.8-6.2,6.2h0c0,3.4,2.8,6.2,6.2,6.2"/>
    <path class="cls-2" d="M1407.6,1638.7c3.4,0,6.2-2.8,6.2-6.2s-2.8-6.2-6.2-6.2-6.2,2.8-6.2,6.2c0,3.4,2.8,6.1,6.2,6.2"/>
    <path class="cls-2" d="M1229.3,1582.7c3.4,0,6.2-2.8,6.2-6.2s-2.8-6.2-6.2-6.2-6.2,2.8-6.2,6.2c0,3.4,2.8,6.1,6.2,6.2"/>
    <path class="cls-2" d="M1250,1574.4c3.4,0,6.2-2.8,6.2-6.2,0-3.4-2.8-6.2-6.2-6.2-3.4,0-6.2,2.8-6.2,6.2h0c0,3.4,2.8,6.2,6.2,6.2"/>
    <path class="cls-2" d="M1231.4,1711.3c3.4,0,6.2-2.8,6.2-6.2s-2.8-6.2-6.2-6.2-6.2,2.8-6.2,6.2h0c0,3.4,2.8,6.2,6.2,6.2"/>
    <path class="cls-2" d="M1162.6,1674.7c3.4,0,6.2-2.8,6.2-6.2s-2.8-6.2-6.2-6.2-6.2,2.8-6.2,6.2c0,3.4,2.8,6.1,6.2,6.2"/>
    <path class="cls-2" d="M1121.5,1806.7c3.4,0,6.2-2.8,6.2-6.2s-2.8-6.2-6.2-6.2c-3.4,0-6.2,2.8-6.2,6.2h0c0,3.4,2.8,6.2,6.2,6.2"/>
    <path class="cls-2" d="M1131.8,1833.6c3.4,0,6.2-2.8,6.2-6.2s-2.8-6.2-6.2-6.2-6.2,2.8-6.2,6.2c0,3.4,2.8,6.1,6.2,6.2"/>
    <path class="cls-2" d="M1161.3,1852.2c3.4,0,6.2-2.8,6.2-6.2s-2.8-6.2-6.2-6.2c-3.4,0-6.2,2.8-6.2,6.2,0,3.4,2.8,6.1,6.2,6.2"/>
    <path class="cls-2" d="M1185.8,1935.2c3.4,0,6.2-2.8,6.2-6.2s-2.8-6.2-6.2-6.2-6.2,2.8-6.2,6.2c0,3.4,2.8,6.1,6.2,6.2"/>
    <path class="cls-2" d="M896,1939c3.4,0,6.2-2.8,6.2-6.2s-2.8-6.2-6.2-6.2-6.2,2.8-6.2,6.2c0,3.4,2.8,6.1,6.2,6.2"/>
    <path class="cls-2" d="M859.9,1852.2c3.4,0,6.2-2.8,6.2-6.2s-2.8-6.2-6.2-6.2-6.2,2.8-6.2,6.2c0,3.4,2.8,6.1,6.2,6.2"/>
    <path class="cls-2" d="M916.5,1825.5c3.4,0,6.2-2.8,6.2-6.2,0-3.4-2.8-6.2-6.2-6.2s-6.2,2.8-6.2,6.2h0c0,3.4,2.8,6.2,6.2,6.2"/>
    <path class="cls-2" d="M924.5,1808.7c3.4,0,6.2-2.8,6.2-6.2s-2.8-6.2-6.2-6.2-6.2,2.8-6.2,6.2c0,3.4,2.8,6.1,6.2,6.2"/>
    <path class="cls-2" d="M897.5,1771.4c3.4,0,6.2-2.8,6.2-6.2,0-3.4-2.8-6.2-6.2-6.2s-6.2,2.8-6.2,6.2h0c0,3.4,2.8,6.2,6.2,6.2"/>
    <path class="cls-2" d="M916.2,1736.2c3.4,0,6.2-2.8,6.2-6.2,0-3.4-2.8-6.2-6.2-6.2-3.4,0-6.2,2.8-6.2,6.2,0,0,0,0,0,0,0,3.4,2.8,6.1,6.2,6.2"/>
    <path class="cls-2" d="M982.5,1721.6c3.4,0,6.2-2.8,6.2-6.2,0-3.4-2.8-6.2-6.2-6.2-3.4,0-6.2,2.8-6.2,6.2,0,3.4,2.8,6.1,6.2,6.2"/>
    <path class="cls-2" d="M982.5,1767.3c3.4,0,6.2-2.8,6.2-6.2,0-3.4-2.8-6.2-6.2-6.2-3.4,0-6.2,2.8-6.2,6.2,0,3.4,2.8,6.1,6.2,6.2"/>
    <path class="cls-2" d="M1007.4,1783.8c3.4,0,6.2-2.8,6.2-6.2s-2.8-6.2-6.2-6.2-6.2,2.8-6.2,6.2c0,3.4,2.8,6.1,6.2,6.2"/>
    <path class="cls-2" d="M907.9,1674c3.4,0,6.2-2.8,6.2-6.2s-2.8-6.2-6.2-6.2-6.2,2.8-6.2,6.2c0,3.4,2.8,6.1,6.2,6.2"/>
    <path class="cls-2" d="M812.5,1812.9c3.4,0,6.2-2.8,6.2-6.2,0-3.4-2.8-6.2-6.2-6.2s-6.2,2.8-6.2,6.2h0c0,3.4,2.8,6.2,6.2,6.2"/>
    <path class="cls-2" d="M917.7,1871.5c3.4,0,6.2-2.8,6.2-6.2s-2.8-6.2-6.2-6.2-6.2,2.8-6.2,6.2c0,3.4,2.8,6.1,6.2,6.2"/>
    <path class="cls-2" d="M845.7,1953.9c3.4,0,6.2-2.8,6.2-6.2s-2.8-6.2-6.2-6.2-6.2,2.8-6.2,6.2h0c0,3.4,2.8,6.2,6.2,6.2"/>
    <path class="cls-2" d="M864.4,1964.2c3.4,0,6.2-2.8,6.2-6.2s-2.8-6.2-6.2-6.2-6.2,2.8-6.2,6.2c0,3.4,2.8,6.1,6.2,6.2"/>
    <path class="cls-2" d="M938,1909.6c3.4,0,6.2-2.8,6.2-6.2,0-3.4-2.8-6.2-6.2-6.2-3.4,0-6.2,2.8-6.2,6.2,0,3.4,2.8,6.1,6.2,6.2"/>
    <path class="cls-2" d="M878.7,1854.7c3.4,0,6.2-2.8,6.2-6.2,0-3.4-2.8-6.2-6.2-6.2s-6.2,2.8-6.2,6.2h0c0,3.4,2.8,6.2,6.2,6.2"/>
    <path class="cls-2" d="M986.7,1819.1c3.4,0,6.2-2.8,6.2-6.2,0-3.4-2.8-6.2-6.2-6.2s-6.2,2.8-6.2,6.2h0c0,3.4,2.8,6.2,6.2,6.2"/>
    <path class="cls-2" d="M1038.5,1808.7c3.4,0,6.2-2.8,6.2-6.2s-2.8-6.2-6.2-6.2-6.2,2.8-6.2,6.2c0,3.4,2.8,6.1,6.2,6.2"/>
    <path class="cls-2" d="M1048.8,1721.7c3.4,0,6.2-2.8,6.2-6.2,0-3.4-2.8-6.2-6.2-6.2-3.4,0-6.2,2.8-6.2,6.2h0c0,3.4,2.8,6.2,6.2,6.2"/>
    <path class="cls-2" d="M1042.7,1703c3.4,0,6.2-2.8,6.2-6.2s-2.8-6.2-6.2-6.2-6.2,2.8-6.2,6.2c0,3.4,2.8,6.1,6.2,6.2"/>
    <path class="cls-2" d="M1107.2,1670.2c3.4,0,6.2-2.7,6.2-6.2s-2.7-6.2-6.2-6.2c-3.4,0-6.2,2.7-6.2,6.1,0,3.4,2.8,6.1,6.2,6.2"/>
    <path class="cls-2" d="M1144.3,1636.6c3.4,0,6.2-2.8,6.2-6.2s-2.8-6.2-6.2-6.2-6.2,2.8-6.2,6.2c0,3.4,2.8,6.1,6.2,6.2"/>
    <path class="cls-2" d="M1210,1614.8c3.4,0,6.2-2.8,6.2-6.2s-2.8-6.2-6.2-6.2c-3.4,0-6.2,2.8-6.2,6.2h0c0,3.4,2.8,6.2,6.2,6.2"/>
    <path class="cls-2" d="M1272.8,1647c3.4,0,6.2-2.8,6.2-6.2s-2.8-6.2-6.2-6.2-6.2,2.8-6.2,6.2h0c0,3.4,2.8,6.2,6.2,6.2"/>
    <path class="cls-2" d="M1250,1709.2c3.4,0,6.2-2.8,6.2-6.2s-2.8-6.2-6.2-6.2-6.2,2.8-6.2,6.2c0,3.4,2.8,6.1,6.2,6.2"/>
    <path class="cls-2" d="M1175.4,1756.9c3.4,0,6.2-2.8,6.2-6.2s-2.8-6.2-6.2-6.2-6.2,2.8-6.2,6.2c0,3.4,2.8,6.1,6.2,6.2"/>
    <path class="cls-2" d="M1096.6,1609.7c3.4,0,6.2-2.8,6.2-6.2,0-3.4-2.8-6.2-6.2-6.2-3.4,0-6.2,2.8-6.2,6.2h0c0,3.4,2.8,6.2,6.2,6.2"/>
    <path class="cls-2" d="M1175.4,1649.1c3.4,0,6.2-2.8,6.2-6.2s-2.8-6.2-6.2-6.2-6.2,2.8-6.2,6.2c0,3.4,2.8,6.1,6.2,6.2"/>
    <path class="cls-2" d="M1297.7,1713.3c3.4,0,6.2-2.8,6.2-6.2s-2.8-6.2-6.2-6.2-6.2,2.8-6.2,6.2c0,3.4,2.8,6.1,6.2,6.2"/>
    <path class="cls-2" d="M1162.9,1817c3.4,0,6.2-2.8,6.2-6.2,0-3.4-2.8-6.2-6.2-6.2-3.4,0-6.2,2.8-6.2,6.2h0c0,3.4,2.8,6.2,6.2,6.2"/>
    <path class="cls-2" d="M1089.8,1842.8c3.4,0,6.2-2.8,6.2-6.2,0-3.4-2.8-6.2-6.2-6.2-3.4,0-6.2,2.8-6.2,6.2h0c0,3.4,2.8,6.2,6.2,6.2"/>
    <path class="cls-2" d="M966,1709.2c3.4,0,6.2-2.8,6.2-6.2s-2.8-6.2-6.2-6.2-6.2,2.8-6.2,6.2c0,3.4,2.8,6.1,6.2,6.2"/>
    <path class="cls-2" d="M897.5,1736.2c3.4,0,6.2-2.8,6.2-6.2,0-3.4-2.8-6.2-6.2-6.2s-6.2,2.8-6.2,6.2h0c0,3.4,2.8,6.2,6.2,6.2"/>
    <path class="cls-2" d="M870.8,1832c3.4,0,6.2-2.8,6.2-6.2s-2.8-6.2-6.2-6.2-6.2,2.8-6.2,6.2h0c0,3.4,2.8,6.2,6.2,6.2"/>
    <path class="cls-2" d="M878.9,1893.7c3.4,0,6.2-2.8,6.2-6.2s-2.8-6.2-6.2-6.2-6.2,2.8-6.2,6.2c0,3.4,2.8,6.1,6.2,6.2"/>
    <path class="cls-2" d="M997.1,1765.2c3.4,0,6.2-2.8,6.2-6.2,0-3.4-2.8-6.2-6.2-6.2s-6.2,2.8-6.2,6.2h0c0,3.4,2.8,6.2,6.2,6.2"/>
    <path class="cls-2" d="M949.4,1742.4c3.4,0,6.2-2.8,6.2-6.2s-2.8-6.2-6.2-6.2-6.2,2.8-6.2,6.2c0,3.4,2.8,6.1,6.2,6.2"/>
    <path class="cls-2" d="M982.5,1647c3.4,0,6.2-2.8,6.2-6.2s-2.8-6.2-6.2-6.2-6.2,2.8-6.2,6.2h0c0,3.4,2.8,6.2,6.2,6.2"/>
    <path class="cls-2" d="M939,1588.9c3.4,0,6.2-2.8,6.2-6.2s-2.8-6.2-6.2-6.2-6.2,2.8-6.2,6.2c0,3.4,2.8,6.1,6.2,6.2"/>
    <path class="cls-2" d="M949.4,1564.1c3.4,0,6.2-2.8,6.2-6.2,0-3.4-2.8-6.2-6.2-6.2s-6.2,2.8-6.2,6.2h0c0,3.4,2.8,6.2,6.2,6.2"/>
    <path class="cls-2" d="M1119.4,1557.8c3.4,0,6.2-2.8,6.2-6.2s-2.8-6.2-6.2-6.2c-3.4,0-6.2,2.8-6.2,6.2h0c0,3.4,2.8,6.2,6.2,6.2"/>
    <path class="cls-2" d="M1248,1551.6c3.4,0,6.2-2.8,6.2-6.2s-2.8-6.2-6.2-6.2-6.2,2.8-6.2,6.2h0c0,3.4,2.8,6.2,6.2,6.2"/>
    <path class="cls-2" d="M1268.7,1549.5c3.4,0,6.2-2.8,6.2-6.2s-2.8-6.2-6.2-6.2-6.2,2.8-6.2,6.2c0,3.4,2.8,6.1,6.2,6.2"/>
    <path class="cls-2" d="M1277,1632.5c3.4,0,6.2-2.8,6.2-6.2s-2.8-6.2-6.2-6.2-6.2,2.8-6.2,6.2c0,3.4,2.8,6.1,6.2,6.2"/>
    <path class="cls-2" d="M1249.8,1668.2c3.4,0,6.2-2.8,6.2-6.2s-2.8-6.2-6.2-6.2c-3.4,0-6.2,2.8-6.2,6.2,0,3.4,2.8,6.1,6.2,6.2"/>
    <path class="cls-2" d="M1189.9,1611.7c3.4,0,6.2-2.8,6.2-6.2s-2.8-6.2-6.2-6.2-6.2,2.8-6.2,6.2h0c0,3.4,2.8,6.2,6.2,6.2"/>
    <path class="cls-2" d="M1133.9,1576.5c3.4,0,6.2-2.8,6.2-6.2s-2.8-6.2-6.2-6.2-6.2,2.8-6.2,6.2c0,3.4,2.8,6.1,6.2,6.2"/>
    <path class="cls-2" d="M1216.8,1647c3.4,0,6.2-2.8,6.2-6.2s-2.8-6.2-6.2-6.2c-3.4,0-6.2,2.8-6.2,6.2h0c0,3.4,2.8,6.2,6.2,6.2"/>
    <path class="cls-2" d="M1306,1769.3c3.4,0,6.2-2.8,6.2-6.2s-2.8-6.2-6.2-6.2-6.2,2.8-6.2,6.2c0,3.4,2.8,6.1,6.2,6.2"/>
    <path class="cls-2" d="M1418,1815c3.4,0,6.2-2.8,6.2-6.2s-2.8-6.2-6.2-6.2-6.2,2.8-6.2,6.2c0,3.4,2.8,6.1,6.2,6.2"/>
    <path class="cls-2" d="M1413.8,1904.1c3.4,0,6.2-2.8,6.2-6.2s-2.8-6.2-6.2-6.2-6.2,2.8-6.2,6.2c0,3.4,2.8,6.1,6.2,6.2"/>
    <path class="cls-2" d="M1380.2,1951.4c3.4,0,6.2-2.8,6.2-6.2s-2.8-6.2-6.2-6.2c-3.4,0-6.2,2.8-6.2,6.2,0,3.4,2.8,6.1,6.2,6.2"/>
    <path class="cls-2" d="M1328.8,1939.4c3.4,0,6.2-2.8,6.2-6.2s-2.8-6.2-6.2-6.2-6.2,2.8-6.2,6.2c0,3.4,2.8,6.1,6.2,6.2"/>
    <path class="cls-2" d="M1341.3,1883.4c3.4,0,6.2-2.8,6.2-6.2,0-3.4-2.8-6.2-6.2-6.2-3.4,0-6.2,2.8-6.2,6.2h0c0,3.4,2.8,6.2,6.2,6.2"/>
    <path class="cls-2" d="M1328.8,1854.3c3.4,0,6.2-2.8,6.2-6.2s-2.8-6.2-6.2-6.2c-3.4,0-6.2,2.8-6.2,6.2h0c0,3.4,2.8,6.2,6.2,6.2"/>
    <path class="cls-2" d="M1264.5,1817c3.4,0,6.2-2.8,6.2-6.2,0-3.4-2.8-6.2-6.2-6.2-3.4,0-6.2,2.8-6.2,6.2h0c0,3.4,2.8,6.2,6.2,6.2"/>
    <path class="cls-2" d="M1140.1,1929c3.4,0,6.2-2.8,6.2-6.2s-2.8-6.2-6.2-6.2-6.2,2.8-6.2,6.2c0,3.4,2.8,6.1,6.2,6.2"/>
    <path class="cls-2" d="M1092.4,1976.7c3.4,0,6.2-2.8,6.2-6.2s-2.8-6.2-6.2-6.2-6.2,2.8-6.2,6.2c0,3.4,2.8,6.1,6.2,6.2"/>
    <path class="cls-2" d="M972.2,1966.3c3.4,0,6.2-2.8,6.2-6.2,0-3.4-2.8-6.2-6.2-6.2s-6.2,2.8-6.2,6.2h0c0,3.4,2.8,6.2,6.2,6.2"/>
    <path class="cls-2" d="M909.3,1926.7c3.4,0,6.2-2.8,6.2-6.2,0-3.4-2.8-6.2-6.2-6.2s-6.2,2.8-6.2,6.2h0c0,3.4,2.8,6.2,6.2,6.2"/>
    <path class="cls-2" d="M829.1,1960.1c3.4,0,6.2-2.8,6.2-6.2,0-3.4-2.8-6.2-6.2-6.2s-6.2,2.8-6.2,6.2h0c0,3.4,2.8,6.2,6.2,6.2"/>
    <path class="cls-2" d="M932.8,1819.1c3.4,0,6.2-2.8,6.2-6.2,0-3.4-2.8-6.2-6.2-6.2s-6.2,2.8-6.2,6.2h0c0,3.4,2.8,6.2,6.2,6.2"/>
    <path class="cls-2" d="M858.1,1808.7c3.4,0,6.2-2.8,6.2-6.2,0-3.4-2.8-6.2-6.2-6.2-3.4,0-6.2,2.8-6.2,6.2,0,3.4,2.8,6.1,6.2,6.2"/>
    <path class="cls-2" d="M955.6,1754.8c3.4,0,6.2-2.8,6.2-6.2s-2.8-6.2-6.2-6.2-6.2,2.8-6.2,6.2c0,3.4,2.8,6.1,6.2,6.2"/>
    <path class="cls-2" d="M941.1,1638.7c3.4,0,6.2-2.8,6.2-6.2,0-3.4-2.8-6.2-6.2-6.2-3.4,0-6.2,2.8-6.2,6.2,0,3.4,2.8,6.1,6.2,6.2"/>
    <path class="cls-2" d="M930.7,1605.5c3.4,0,6.2-2.8,6.2-6.2,0-3.4-2.8-6.2-6.2-6.2s-6.2,2.8-6.2,6.2h0c0,3.4,2.8,6.2,6.2,6.2"/>
    <path class="cls-2" d="M1030.2,1582.7c3.4,0,6.2-2.8,6.2-6.2s-2.8-6.2-6.2-6.2-6.2,2.8-6.2,6.2c0,3.4,2.8,6.1,6.2,6.2"/>
    <path class="cls-2" d="M1027.8,1632.1c3.4,0,6.2-2.8,6.2-6.2,0-3.4-2.8-6.2-6.2-6.2-3.4,0-6.2,2.8-6.2,6.2h0c0,3.4,2.8,6.2,6.2,6.2"/>
    <path class="cls-2" d="M1034,1732.5c3.4,0,6.2-2.8,6.2-6.2,0-3.4-2.8-6.2-6.2-6.2-3.4,0-6.2,2.8-6.2,6.2h0c0,3.4,2.8,6.2,6.2,6.2"/>
    <path class="cls-2" d="M1082.1,1796.3c3.4,0,6.2-2.8,6.2-6.2s-2.8-6.2-6.2-6.2c-3.4,0-6.2,2.8-6.2,6.2,0,3.4,2.8,6.1,6.2,6.2"/>
    <path class="cls-2" d="M1223.4,1801.8c3.4,0,6.2-2.8,6.2-6.2s-2.8-6.2-6.2-6.2-6.2,2.8-6.2,6.2h0c0,3.4,2.8,6.2,6.2,6.2"/>
    <path class="cls-2" d="M1231.4,1767.3c3.4,0,6.2-2.8,6.2-6.2s-2.8-6.2-6.2-6.2c-3.4,0-6.2,2.8-6.2,6.2,0,3.4,2.8,6.1,6.2,6.2"/>
    <path class="cls-2" d="M1090.4,1719.6c3.4,0,6.2-2.8,6.2-6.2s-2.8-6.2-6.2-6.2-6.2,2.8-6.2,6.2c0,3.4,2.8,6.1,6.2,6.2"/>
    <path class="cls-2" d="M1050.8,1762.1c3.4,0,6.2-2.8,6.2-6.2,0-3.4-2.8-6.2-6.2-6.2-3.4,0-6.2,2.8-6.2,6.2h0c0,3.4,2.8,6.2,6.2,6.2"/>
    <path class="cls-2" d="M1181.6,1694.7c3.4,0,6.2-2.8,6.2-6.2s-2.8-6.2-6.2-6.2c-3.4,0-6.2,2.8-6.2,6.2h0c0,3.4,2.8,6.2,6.2,6.2"/>
    <path class="cls-2" d="M1258,1695.4c3.4,0,6.2-2.8,6.2-6.2s-2.8-6.2-6.2-6.2c-3.4,0-6.2,2.8-6.2,6.2,0,3.4,2.8,6.1,6.2,6.2"/>
    <path class="cls-2" d="M1405.5,1698.8c3.4,0,6.2-2.8,6.2-6.2,0-3.4-2.8-6.2-6.2-6.2-3.4,0-6.2,2.8-6.2,6.2h0c0,3.4,2.8,6.2,6.2,6.2"/>
    <path class="cls-2" d="M1355.8,1628.3c3.4,0,6.2-2.8,6.2-6.2s-2.8-6.2-6.2-6.2-6.2,2.8-6.2,6.2h0c0,3.4,2.8,6.2,6.2,6.2"/>
    <path class="cls-2" d="M1316.4,1584.8c3.4,0,6.2-2.8,6.2-6.2s-2.8-6.2-6.2-6.2-6.2,2.8-6.2,6.2c0,3.4,2.8,6.1,6.2,6.2"/>
    <path class="cls-2" d="M1285.3,1555.8c3.4,0,6.2-2.8,6.2-6.2s-2.8-6.2-6.2-6.2-6.2,2.8-6.2,6.2c0,3.4,2.8,6.1,6.2,6.2"/>
    <path class="cls-2" d="M1316.4,1551.6c3.4,0,6.2-2.8,6.2-6.2,0-3.4-2.8-6.2-6.2-6.2-3.4,0-6.2,2.8-6.2,6.2h0c0,3.4,2.8,6.2,6.2,6.2"/>
    <path class="cls-2" d="M1194,1559.9c3.4,0,6.2-2.8,6.2-6.2s-2.8-6.2-6.2-6.2-6.2,2.8-6.2,6.2c0,3.4,2.8,6.1,6.2,6.2"/>
    <path class="cls-2" d="M1217.4,1597c3.4,0,6.2-2.8,6.2-6.2s-2.8-6.2-6.2-6.2-6.2,2.8-6.2,6.2c0,3.4,2.8,6.1,6.2,6.2"/>
    <path class="cls-2" d="M1403.5,1744.4c3.4,0,6.2-2.8,6.2-6.2s-2.8-6.2-6.2-6.2c-3.4,0-6.2,2.8-6.2,6.2,0,3.4,2.8,6.1,6.2,6.2"/>
    <path class="cls-2" d="M1308.1,1827.4c3.4,0,6.2-2.8,6.2-6.2s-2.8-6.2-6.2-6.2c-3.4,0-6.2,2.8-6.2,6.2,0,3.4,2.8,6.1,6.2,6.2"/>
    <path class="cls-2" d="M1310.2,1856.4c3.4,0,6.2-2.8,6.2-6.2s-2.8-6.2-6.2-6.2-6.2,2.8-6.2,6.2c0,3.4,2.8,6.1,6.2,6.2"/>
    <path class="cls-2" d="M1198.2,1746.5c3.4,0,6.2-2.8,6.2-6.2,0-3.4-2.8-6.2-6.2-6.2-3.4,0-6.2,2.8-6.2,6.2h0c0,3.4,2.8,6.2,6.2,6.2"/>
    <path class="cls-2" d="M1107,1771.4c3.4,0,6.2-2.8,6.2-6.2s-2.8-6.2-6.2-6.2-6.2,2.8-6.2,6.2h0c0,3.4,2.8,6.2,6.2,6.2"/>
    <path class="cls-2" d="M1150.5,1877.2c3.4,0,6.2-2.8,6.2-6.2,0-3.4-2.8-6.2-6.2-6.2-3.4,0-6.2,2.8-6.2,6.2h0c0,3.4,2.8,6.2,6.2,6.2"/>
    <path class="cls-2" d="M1144.3,1912.4c3.4,0,6.2-2.8,6.2-6.2,0-3.4-2.8-6.2-6.2-6.2-3.4,0-6.2,2.8-6.2,6.2h0c0,3.4,2.8,6.2,6.2,6.2"/>
    <path class="cls-2" d="M990.8,1953.9c3.4,0,6.2-2.8,6.2-6.2,0-3.4-2.8-6.2-6.2-6.2s-6.2,2.8-6.2,6.2h0c0,3.4,2.8,6.2,6.2,6.2"/>
    <path class="cls-2" d="M947.3,1949.7c3.4,0,6.2-2.8,6.2-6.2s-2.8-6.2-6.2-6.2-6.2,2.8-6.2,6.2c0,3.4,2.8,6.1,6.2,6.2"/>
    <path class="cls-2" d="M893.4,1916.6c3.4,0,6.2-2.8,6.2-6.2,0-3.4-2.8-6.2-6.2-6.2-3.4,0-6.2,2.8-6.2,6.2,0,3.4,2.8,6.1,6.2,6.2"/>
    <path class="cls-2" d="M941.1,1862.6c3.4,0,6.2-2.8,6.2-6.2,0-3.4-2.8-6.2-6.2-6.2-3.4,0-6.2,2.8-6.2,6.2,0,3.4,2.8,6.1,6.2,6.2"/>
    <path class="cls-2" d="M881,1746.5c3.4,0,6.2-2.8,6.2-6.2s-2.8-6.2-6.2-6.2-6.2,2.8-6.2,6.2h0c0,3.4,2.8,6.2,6.2,6.2"/>
    <path class="cls-2" d="M893.4,1674c3.4,0,6.2-2.8,6.2-6.2,0-3.4-2.8-6.2-6.2-6.2-3.4,0-6.2,2.8-6.2,6.2,0,3.4,2.8,6.1,6.2,6.2"/>
    <path class="cls-2" d="M858.1,1618c3.4,0,6.2-2.8,6.2-6.2,0-3.4-2.8-6.2-6.2-6.2-3.4,0-6.2,2.8-6.2,6.2,0,3.4,2.8,6.1,6.2,6.2"/>
    <path class="cls-2" d="M1036.5,1562c3.4,0,6.2-2.8,6.2-6.2s-2.8-6.2-6.2-6.2-6.2,2.8-6.2,6.2c0,3.4,2.8,6.1,6.2,6.2"/>
    <path class="cls-2" d="M1015.7,1553.7c3.4,0,6.2-2.8,6.2-6.2s-2.8-6.2-6.2-6.2-6.2,2.8-6.2,6.2c0,3.4,2.8,6.1,6.2,6.2"/>
    <path class="cls-2" d="M1034.4,1690.5c3.4,0,6.2-2.8,6.2-6.2s-2.8-6.2-6.2-6.2-6.2,2.8-6.2,6.2c0,3.4,2.8,6.1,6.2,6.2"/>
    <path class="cls-2" d="M1116.1,1657.4c3.4,0,6.2-2.8,6.2-6.2s-2.8-6.2-6.2-6.2-6.2,2.8-6.2,6.2c0,3.4,2.8,6.1,6.2,6.2"/>
    <path class="cls-2" d="M1144.3,1785.9c3.4,0,6.2-2.8,6.2-6.2s-2.8-6.2-6.2-6.2-6.2,2.8-6.2,6.2c0,3.4,2.8,6.1,6.2,6.2"/>
    <path class="cls-2" d="M1133.9,1812.9c3.4,0,6.2-2.8,6.2-6.2s-2.8-6.2-6.2-6.2c-3.4,0-6.2,2.8-6.2,6.2h0c0,3.4,2.8,6.2,6.2,6.2"/>
    <path class="cls-2" d="M1101.7,1830c3.4,0,6.2-2.8,6.2-6.2,0-3.4-2.8-6.2-6.2-6.2-3.4,0-6.2,2.8-6.2,6.2h0c0,3.4,2.8,6.2,6.2,6.2"/>
    <path class="cls-2" d="M1080,1914.5c3.4,0,6.2-2.8,6.2-6.2s-2.8-6.2-6.2-6.2-6.2,2.8-6.2,6.2c0,3.4,2.8,6.1,6.2,6.2"/>
    <path class="cls-2" d="M1370.3,1912.4c3.4,0,6.2-2.8,6.2-6.2,0-3.4-2.8-6.2-6.2-6.2-3.4,0-6.2,2.8-6.2,6.2h0c0,3.4,2.8,6.2,6.2,6.2"/>
    <path class="cls-2" d="M1400.4,1813.2c3.4,0,6.2-2.8,6.2-6.2s-2.8-6.2-6.2-6.2-6.2,2.8-6.2,6.2c0,3.4,2.8,6.1,6.2,6.2"/>
    <path class="cls-2" d="M1351,1798.1c3.4,0,6.2-2.8,6.2-6.2s-2.8-6.2-6.2-6.2-6.2,2.8-6.2,6.2h0c0,3.4,2.8,6.2,6.2,6.2"/>
    <path class="cls-2" d="M1341.3,1788c3.4,0,6.2-2.8,6.2-6.2,0-3.4-2.8-6.2-6.2-6.2-3.4,0-6.2,2.8-6.2,6.2h0c0,3.4,2.8,6.2,6.2,6.2"/>
    <path class="cls-2" d="M1369.3,1741.4c3.4,0,6.2-2.8,6.2-6.2s-2.8-6.2-6.2-6.2-6.2,2.8-6.2,6.2h0c0,3.4,2.8,6.2,6.2,6.2"/>
    <path class="cls-2" d="M1349.6,1715.4c3.4,0,6.2-2.8,6.2-6.2s-2.8-6.2-6.2-6.2c-3.4,0-6.2,2.8-6.2,6.2,0,3.4,2.8,6.1,6.2,6.2"/>
    <path class="cls-2" d="M1283.2,1700.9c3.4,0,6.2-2.8,6.2-6.2s-2.8-6.2-6.2-6.2-6.2,2.8-6.2,6.2c0,3.4,2.8,6.1,6.2,6.2"/>
    <path class="cls-2" d="M1283.2,1746.5c3.4,0,6.2-2.8,6.2-6.2,0-3.4-2.8-6.2-6.2-6.2-3.4,0-6.2,2.8-6.2,6.2h0c0,3.4,2.8,6.2,6.2,6.2"/>
    <path class="cls-2" d="M1258.3,1763.1c3.4,0,6.2-2.8,6.2-6.2s-2.8-6.2-6.2-6.2-6.2,2.8-6.2,6.2c0,3.4,2.8,6.1,6.2,6.2"/>
    <path class="cls-2" d="M1357.8,1653.2c3.4,0,6.2-2.8,6.2-6.2s-2.8-6.2-6.2-6.2c-3.4,0-6.2,2.8-6.2,6.2h0c0,3.4,2.8,6.2,6.2,6.2"/>
    <path class="cls-2" d="M1453.2,1792.1c3.4,0,6.2-2.8,6.2-6.2s-2.8-6.2-6.2-6.2-6.2,2.8-6.2,6.2c0,3.4,2.8,6.1,6.2,6.2"/>
    <path class="cls-2" d="M1348.5,1854.7c3.4,0,6.2-2.8,6.2-6.2,0-3.4-2.8-6.2-6.2-6.2-3.4,0-6.2,2.8-6.2,6.2h0c0,3.4,2.8,6.2,6.2,6.2"/>
    <path class="cls-2" d="M1420.1,1933.1c3.4,0,6.2-2.8,6.2-6.2s-2.8-6.2-6.2-6.2c-3.4,0-6.2,2.8-6.2,6.2,0,3.4,2.8,6.1,6.2,6.2"/>
    <path class="cls-2" d="M1401.4,1943.5c3.4,0,6.2-2.8,6.2-6.2s-2.8-6.2-6.2-6.2c-3.4,0-6.2,2.8-6.2,6.2h0c0,3.4,2.8,6.2,6.2,6.2"/>
    <path class="cls-2" d="M1328.2,1899.7c3.4,0,6.2-2.8,6.2-6.2s-2.8-6.2-6.2-6.2c-3.4,0-6.2,2.8-6.2,6.2,0,3.4,2.8,6.1,6.2,6.2"/>
    <path class="cls-2" d="M1391.5,1829.5c3.4,0,6.2-2.8,6.2-6.2s-2.8-6.2-6.2-6.2-6.2,2.8-6.2,6.2c0,3.4,2.8,6.1,6.2,6.2"/>
    <path class="cls-2" d="M1279.1,1798.4c3.4,0,6.2-2.8,6.2-6.2s-2.8-6.2-6.2-6.2c-3.4,0-6.2,2.8-6.2,6.2,0,3.4,2.8,6.1,6.2,6.2"/>
    <path class="cls-2" d="M1227.2,1788c3.4,0,6.2-2.8,6.2-6.2,0-3.4-2.8-6.2-6.2-6.2-3.4,0-6.2,2.8-6.2,6.2h0c0,3.4,2.8,6.2,6.2,6.2"/>
    <path class="cls-2" d="M1216,1696.7c3.4,0,6.2-2.8,6.2-6.2s-2.8-6.2-6.2-6.2c-3.4,0-6.2,2.8-6.2,6.2,0,3.4,2.8,6.1,6.2,6.2"/>
    <path class="cls-2" d="M1223.1,1682.2c3.4,0,6.2-2.8,6.2-6.2s-2.8-6.2-6.2-6.2c-3.4,0-6.2,2.8-6.2,6.2h0c0,3.4,2.8,6.2,6.2,6.2"/>
    <path class="cls-2" d="M1160.9,1642.8c3.4,0,6.2-2.8,6.2-6.2s-2.8-6.2-6.2-6.2-6.2,2.8-6.2,6.2c0,3.4,2.8,6.1,6.2,6.2"/>
    <path class="cls-2" d="M1121.5,1615.9c3.4,0,6.2-2.8,6.2-6.2,0-3.4-2.8-6.2-6.2-6.2-3.4,0-6.2,2.8-6.2,6.2h0c0,3.4,2.8,6.2,6.2,6.2"/>
    <path class="cls-2" d="M1063.4,1584.8c3.4,0,6.2-2.8,6.2-6.2s-2.8-6.2-6.2-6.2-6.2,2.8-6.2,6.2c0,3.4,2.8,6.1,6.2,6.2"/>
    <path class="cls-2" d="M992.9,1626.3c3.4,0,6.2-2.8,6.2-6.2s-2.8-6.2-6.2-6.2-6.2,2.8-6.2,6.2c0,3.4,2.8,6.1,6.2,6.2"/>
    <path class="cls-2" d="M1015.7,1688.5c3.4,0,6.2-2.8,6.2-6.2,0-3.4-2.8-6.2-6.2-6.2s-6.2,2.8-6.2,6.2h0c0,3.4,2.8,6.2,6.2,6.2"/>
    <path class="cls-2" d="M1090.4,1736.2c3.4,0,6.2-2.8,6.2-6.2s-2.8-6.2-6.2-6.2c-3.4,0-6.2,2.8-6.2,6.2h0c0,3.4,2.8,6.2,6.2,6.2"/>
    <path class="cls-6" d="M595.2,1176.1c0,65-73.9,117.6-165.1,117.6s-165.1-52.7-165.1-117.6,74-117.6,165.1-117.6,165.1,52.7,165.1,117.6ZM595.2,1161.2c0,65-73.9,117.6-165.1,117.6s-165.1-52.7-165.1-117.6,74-117.6,165.1-117.6,165.1,52.7,165.1,117.6Z"/>
    <path class="cls-4" d="M1733.4,1200.9h225.9M1854.2,1042.5l19-32.5M1822.3,1009.9l18.4,32.5M1838.3,1057.2l-12.7,5.8M1869.8,1062.9l-12.6-5.8M1824,992.7l23.8-19.7M1827.4,1000.7h40.8M1879.2,1058.7v-46.9M1816.3,1058.7v-46.9M1838.3,1089.6l-13.2-13.2M1857,1089.6l13.2-13.2M1847.7,1151.6v135.4M1847.7,1106.5v23M1847.7,965.3v7.8l22.6,19.7M1858.7,1140.5c0,6.1-4.9,11-11,11s-11-4.9-11-11,4.9-11,11-11c6.1,0,11,4.9,11.1,10.9,0,0,0,0,0,0h0ZM1858.7,1095.5c0,6.1-4.9,11-11,11s-11-4.9-11-11,4.9-11,11-11c6.1,0,11,4.9,11.1,10.9h0ZM1858.7,1051.5c0,6.1-4.9,11-11,11s-11-4.9-11-11,4.9-11,11-11c6.1,0,11,4.9,11.1,10.9h0ZM1890.2,1069.8c0,6.1-4.9,11-11,11s-11-4.9-11-11,4.9-11,11-11c6.1,0,11,4.9,11.1,10.9h0ZM1827.3,1069.8c0,6.1-4.9,11-11,11s-11-4.9-11-11,4.9-11,11-11c6.1,0,11,4.9,11.1,10.9h0ZM1890.2,1000.8c0,6.1-4.9,11-11,11s-11-4.9-11-11,4.9-11,11-11h0c6.1,0,11,4.9,11.1,10.9h0ZM1827.3,1000.8c0,6.1-4.9,11-11,11s-11-4.9-11-11,4.9-11,11-11h0c6.1,0,11,4.9,11.1,10.9h0ZM1871.4,941.5c0,13.1-10.6,23.8-23.8,23.8-13.1,0-23.8-10.6-23.8-23.8s10.6-23.8,23.8-23.8c13.1,0,23.8,10.6,23.8,23.7h0Z"/>
    <line class="cls-4" x1="622.2" y1="451.6" x2="238" y2="451.6"/>
    <path class="cls-10" d="M1435.7,337.9s-85.7-205-298.3-205M836.4,337.9s88.4-205,301-205"/>
    <path class="cls-11" d="M2413.5,610.2c0-1.2-1-2.2-2.2-2.2h-218.8v-278.6c0-1.2-1-2.2-2.2-2.2,0,0,0,0,0,0h-516.4v-97.7c0-1.2-1-2.2-2.2-2.2h-142.4c-4.7-8.4-35.2-61.1-93.5-113.1-37.2-33.2-78.3-59.6-122.2-78.5C1258.8,12,1199.5,0,1137.4,0s-121.4,12-176.2,35.7c-43.8,19-85,45.4-122.2,78.5-58.3,52-88.8,104.7-93.5,113.1h-142.4c-1.2,0-2.2,1-2.2,2.2v97.7H84.4c-1.2,0-2.2,1-2.2,2.2v278.6H2.3c-1.2,0-2.2,1-2.2,2.2v116c0,1.2.9,2.2,2.1,2.2h80v859c0,1.2,1,2.2,2.2,2.2h141v307.6c0,1.2,1,2.2,2.2,2.2h141.5v45.6c0,1.2,1,2.2,2.2,2.2h189.7c1.2,0,2.2-1,2.2-2.2v-45.6h138.7v88.9c0,1.2,1,2.2,2.2,2.2h259.1v43.1c0,1.2,1,2.2,2.2,2.2h344c1.2,0,2.2-1,2.2-2.2h0v-43.1h259.1c1.2,0,2.2-1,2.2-2.2h0v-88.9h138.7v45.6c0,1.2,1,2.2,2.2,2.2h189.8c1.2,0,2.2-1,2.2-2.2h0v-45.6h141.6c1.2,0,2.2-1,2.2-2.2v-307.6h141c1.2,0,2.2-1,2.2-2.2v-856.3c0-1.2-1.1-2.1-2.3-2-1.1,0-2,.9-2,2v854h-141c-1.2,0-2.2,1-2.2,2.2v307.7h-474.3c-1.2,0-2.2,1-2.2,2.2h0v88.8h-862.2v-88.9c0-1.2-1-2.2-2.2-2.2H229.7v-307.6c0-1.2-1-2.2-2.2-2.2H86.5v-856.8h70v782.2h517.1v203.4h164.1v-91.9h-28.1v63.8h-107.9v-150.2h107.9v24.1h28.1v-24.1h222v-28.1h-358v-846.1h-28.1v85.1h-167.2v28.1h167.2v707.8H184.6v-707.8h178.5v-28.1h-178.5v-22.7h-114v-111.7h114v-185.9h489v91.6h28.1v-190h110.1l3.5-9c.2-.5,21.7-54.8,72.2-108.2,67.1-70.9,151.2-106.8,249.9-106.8s182.8,36,249.9,106.9c50.5,53.4,72,107.7,72.2,108.2l3.5,9h110.2v189.9h28.1v-91.6h489v185.9h318.8v797.2c0,1.2,1,2.2,2.2,2.2s2.2-1,2.2-2.2v-799.4ZM1740.7,1899.3h136.2v19.5h-136.2v-19.5ZM1715.9,1899.3h20.4v21.7c0,1.2,1,2.2,2.2,2.2h140.6c1.2,0,2.2-1,2.2-2.2h0v-21.7h20v43.4h-185.4v-43.4ZM992.9,1990.3h289v18.3h-289v-18.3ZM967.5,1990.3h21v20.5c0,1.2,1,2.2,2.2,2.2h293.3c1.2,0,2.2-1,2.2-2.2h0v-20.5h21v40.9h-339.7v-40.9ZM397.9,1899.3h136.2v19.5h-136.2v-19.5ZM373.4,1899.3h20.1v21.7c0,1.2,1,2.2,2.2,2.2h140.6c1.2,0,2.2-1,2.2-2.2h0v-21.7h20.4v43.4h-185.4v-43.4ZM22,724H4.4v-111.7h17.6v111.7ZM44.3,724h-18v-111.7h18v111.7ZM66.3,724h-17.7v-111.7h17.6v111.7ZM2188.2,608h-69.7v-209.7h-517.1v-98.3h-119.4c-8.5-18.6-31.3-62.9-73.4-107.6-50-53.1-137.6-116.4-271.1-116.4s-221.1,63.3-271.1,116.4c-42,44.7-64.9,89-73.4,107.6h-119.4v98.4H156.5v209.7h-70v-276.5h516.5c1.2,0,2.2-1,2.2-2.2v-97.7h141.5c.8,0,1.5-.4,1.9-1.2.3-.5,30.5-57.2,93.3-113.2,35.9-32.2,76.8-58.4,121-77.7,54.2-23.4,112.9-35.3,174.4-35.3s120.2,11.9,174.4,35.3c44.2,19.3,85.1,45.5,121,77.7,62.8,55.9,93,112.6,93.3,113.2.4.7,1.1,1.2,1.9,1.2h141.5v97.7c0,1.2,1,2.2,2.2,2.2h516.4v276.5Z"/>
    <path class="cls-11" d="M2284,724h-193.7v22.6h-178.5v28.1h178.5v707.8h-489v-707.8h167.2v-28.1h-167.2v-85.1h-28.1v846.1h-358v28.1h222v24.1h28.1v-24.1h107.9v150.2h-107.8v-63.8h-28.1v91.9h164.1v-203.5h517.1v-782.2h163.4v681.2c0,1.2,1,2.2,2.2,2.2s2.2-1,2.2-2.2v-683.3c0-1.2-.9-2.2-2.1-2.2,0,0,0,0,0,0Z"/>
    <path class="cls-6" d="M1229,671.9c-43.4-78.8-91.7-162.8-91.7-162.8,0,0-48.2,84-91.7,162.9M1137.3,1391.7c404.9,4,270-374.9,134-640.4M1137.4,1391.7c-405.5,4-269.6-375.8-133.5-641.5"/>
    <circle class="cls-7" cx="1137.4" cy="1130.6" r="108.1"/>
    <rect class="cls-9" x="575.8" y="651.4" width="66.7" height="66.7" transform="translate(-305.8 631.3) rotate(-45)"/>
    <rect class="cls-5" x="768.6" y="1854.2" width="66.8" height="66.8"/>
    <rect class="cls-5" x="992.8" y="1854.2" width="66.8" height="66.8"/>
    <rect class="cls-5" x="1437.2" y="1854.2" width="66.8" height="66.8"/>
    <rect class="cls-5" x="1213" y="1854.2" width="66.8" height="66.8"/>
    <path class="cls-11" d="M419.9,1373.9c2.7-3.6,7-5.3,11.5-5.3,8.8,0,14.5,6.3,14.5,14.6s-5.6,15.9-16.5,15.9-16-6.6-16-12.8,1.4-5.1,3.9-5.1c1.7-.1,3.1,1.1,3.2,2.8,0,.1,0,.2,0,.3,0,1.4-.8,2-.8,3.9,0,4,3.6,7.2,9.5,7.2s10.8-4.4,10.8-11.6-4.5-11.1-10.7-11.1-8.6,1.9-10.4,5.6h-3.8l4.6-22.9h3c2.5,1.5,6.4,2.2,10.4,2.2s7.9-.8,10.5-2.4l1.1,1.6c-3.7,3.6-8.7,5.5-13.8,5.4-2.9,0-5.8-.5-8.5-1.6l-2.6,13.2Z"/>
    <path class="cls-11" d="M468.2,552v.2c8.1.6,11.2,5.2,11.2,10.2,0,7.4-6.2,12.5-16.2,12.5s-16.5-7-16.5-13,1.3-5,3.9-5c1.6-.2,3,1,3.2,2.6,0,.2,0,.3,0,.5,0,1.5-.8,2-.8,3.9,0,3.4,2.5,7.3,10.2,7.3s10.3-2.8,10.3-9.2-3.5-7.9-9.3-7.9h-5.8v-3.8h5.8c5.3,0,8.2-2.7,8.2-7.5s-4.1-8.4-9-8.4c-6.9,0-9.8,3.9-9.8,7.3s.8,2.5.8,3.9c0,1.6-1.1,3-2.7,3.1-.2,0-.3,0-.5,0-2.5,0-3.9-2.1-3.9-5,0-6.1,5.9-13,16.2-13s14.8,4.3,14.8,11.9-2.1,8.4-10,9.4"/>
    <path class="cls-11" d="M517.1,611.5h16.3v-21.7l-16.3,21.7ZM547.7,628h-23.9v-3.6h9.5v-8.5h-20.8v-3.9l20.7-27.4h5.5v27h8.9v4.4h-8.9v8.5h8.9v3.6Z"/>
    <path class="cls-11" d="M1124.3,307c.8-.6,1.8-.8,2.8-.8,5.1,0,12.2,5.3,18.4,5.3s5.1-1.3,5-8.9h3.4c0,11.3-3.8,14.6-8.6,14.6-7.9,0-14.9-8.2-19.3-8.2s-1.6.5-1.6,1.2c0,2,4.2,1.5,4.2,4.5,0,1.5-1.1,2.7-2.6,2.8-.1,0-.2,0-.3,0-2.5,0-4.8-2.5-4.8-7.4s3-8.9,9.2-11.6l9.3-4.1c5-2.1,7-4.5,7-8.9s-3.5-8.7-9.3-8.7-9.4,4.1-9.4,7.5.8,2.5.8,3.9c0,1.6-1.1,3-2.8,3.1-.2,0-.3,0-.5,0-2.6,0-3.9-2-3.9-5,0-6.2,5.8-13.2,16.2-13.2s15,4.1,15,12.6-3.6,10.1-10.4,12.3l-11.4,3.8c-3.9,1.3-5.9,2.8-6.5,5"/>
    <path class="cls-11" d="M1127.2,811c0,6.7,4.4,9.6,10.1,9.6s9.4-4.4,9.4-10.1-3.6-9.6-9.3-9.6-10.2,4.4-10.2,10.1M1126.4,800v5c1.8-5.1,6.3-7.9,12-7.9s14.3,5,14.3,13.2-6.6,14.1-15.4,14.1-17.4-7.3-17.4-21.6,7.5-22.7,18-22.7,14.2,5.4,14.2,11.2-1.3,4.6-3.8,4.6c-1.6.2-3.1-1-3.3-2.7,0-.1,0-.3,0-.4,0-1.3.7-2.1.7-3.5,0-2.6-2.3-5.6-7.9-5.6s-11.4,3.6-11.4,16.4"/>
    <path class="cls-11" d="M1127.2,1720.2c0,6.7,4.4,9.6,10.1,9.6s9.4-4.4,9.4-10.1-3.6-9.6-9.3-9.6-10.2,4.4-10.2,10.1M1126.4,1709.2v5c1.8-5.1,6.3-7.9,12-7.9s14.3,5,14.3,13.2-6.6,14.1-15.4,14.1-17.4-7.3-17.4-21.6,7.5-22.7,18-22.7,14.2,5.4,14.2,11.2-1.3,4.6-3.8,4.6c-1.7.1-3.2-1.1-3.3-2.8,0-.1,0-.2,0-.3,0-1.3.7-2.1.7-3.5,0-2.6-2.3-5.6-7.9-5.6s-11.4,3.6-11.4,16.4"/>
    <path class="cls-11" d="M1432.8,811c0,6.7,4.4,9.6,10.1,9.6s9.4-4.4,9.4-10.1-3.6-9.6-9.3-9.6-10.2,4.4-10.2,10.1M1432,800v5c1.8-5.1,6.3-7.9,12-7.9s14.3,5,14.3,13.2-6.6,14.1-15.4,14.1-17.4-7.3-17.4-21.6,7.5-22.7,17.9-22.7,14.2,5.4,14.2,11.2-1.3,4.6-3.8,4.6c-1.6.2-3.1-1-3.3-2.7,0-.1,0-.3,0-.4,0-1.3.7-2.1.7-3.5,0-2.6-2.3-5.6-7.9-5.6s-11.4,3.6-11.4,16.4"/>
    <path class="cls-11" d="M1859.8,1396.6h-25.3v-3.6h10.2v-30.4h-10.8v-4.2h7.3c4.9,0,6-1.4,6-5.4v-.7h3.2v40.7h9.4v3.6Z"/>
    <rect class="cls-2" x="1461.1" y="652.6" width="8.7" height="54.7" transform="translate(-51.6 1235.4) rotate(-45)"/>
    <rect class="cls-2" x="1378" y="652.3" width="8.7" height="54.7" transform="translate(-75.7 1176.5) rotate(-45)"/>
    <rect class="cls-2" x="1397.4" y="720.3" width="54.7" height="8.7" transform="translate(-95.1 1219.7) rotate(-45)"/>
    <rect class="cls-2" x="1461.4" y="670.5" width="8.7" height="54.7" transform="translate(-64.2 1240.8) rotate(-45)"/>
    <rect class="cls-2" x="1378.3" y="670.3" width="8.7" height="54.7" transform="translate(-88.4 1182) rotate(-45)"/>
    <rect class="cls-2" x="1397.1" y="702.4" width="54.7" height="8.7" transform="translate(-82.5 1214.2) rotate(-45)"/>
    <rect class="cls-2" x="1397.6" y="738.2" width="54.7" height="8.7" transform="translate(-107.7 1225.1) rotate(-45)"/>
    <rect class="cls-2" x="1461.7" y="688.5" width="8.7" height="54.7" transform="translate(-76.8 1246.3) rotate(-45)"/>
    <rect class="cls-2" x="1378.6" y="688.2" width="8.7" height="54.7" transform="translate(-100.9 1187.5) rotate(-45)"/>
    <rect class="cls-2" x="1462.2" y="724.2" width="8.7" height="54.7" transform="translate(-101.9 1257.2) rotate(-45)"/>
    <rect class="cls-2" x="1379.2" y="724.1" width="8.7" height="54.7" transform="translate(-126.2 1198.4) rotate(-45)"/>
    <rect class="cls-2" x="1462" y="706.4" width="8.7" height="54.7" transform="translate(-89.4 1251.8) rotate(-45)"/>
    <rect class="cls-2" x="1378.9" y="706.3" width="8.7" height="54.7" transform="translate(-113.6 1193) rotate(-45)"/>
    <rect class="cls-2" x="1396.8" y="684.5" width="54.7" height="8.7" transform="translate(-69.9 1208.8) rotate(-45)"/>
    <rect class="cls-2" x="1396.5" y="666.5" width="54.7" height="8.7" transform="translate(-57.3 1203.4) rotate(-45)"/>
    <g class="cls-3">
      <text class="cls-1" transform="translate(1958 656.8) scale(1 1)"><tspan x="0" y="0">Recommended Path </tspan></text>
      <text class="cls-1" transform="translate(1958 705.8) scale(1 1)"><tspan x="0" y="0">Empfohlener Weg</tspan></text>
    </g>
  </g>
  <g id="Layer_1" data-name="Layer 1">
    <path class="cls-2" d="M1859.8,1396.6h-25.3v-3.6h10.2v-30.4h-10.8v-4.2h7.3c4.9,0,6-1.4,6-5.4v-.7h3.2v40.7h9.4v3.6ZM1881.4,1375.6c0-19.4-15.7-35.1-35.1-35.1s-35.1,15.7-35.1,35.1,15.7,35.1,35.1,35.1h0c19.4,0,35.1-15.7,35.1-35.1"/>
  </g>
  <g id="Layer_2" data-name="Layer 2">
    <path class="cls-2" d="M1124.3,308c.8-.6,1.8-.8,2.8-.8,5.1,0,12.2,5.3,18.4,5.3s5.1-1.3,5-8.9h3.4c0,11.3-3.8,14.6-8.6,14.6-7.9,0-14.9-8.2-19.3-8.2s-1.6.5-1.6,1.2c0,2,4.2,1.5,4.2,4.5,0,1.5-1.1,2.7-2.6,2.8-.1,0-.2,0-.3,0-2.5,0-4.8-2.5-4.8-7.4s3-8.9,9.2-11.6l9.3-4.1c5-2.1,7-4.5,7-8.9s-3.5-8.7-9.3-8.7-9.4,4.1-9.4,7.5.8,2.5.8,3.9c0,1.6-1.1,3-2.8,3.1-.2,0-.3,0-.5,0-2.6,0-3.9-2-3.9-5,0-6.2,5.8-13.2,16.2-13.2s15,4.1,15,12.6-3.6,10.1-10.4,12.3l-11.4,3.8c-3.9,1.3-5.9,2.8-6.5,5M1172.4,297.4c0-19.4-15.7-35.1-35.1-35.1s-35.1,15.7-35.1,35.1,15.7,35.1,35.1,35.1h0c19.4,0,35.1-15.7,35.1-35.1h0"/>
  </g>
  <g id="Layer_3" data-name="Layer 3">
    <path class="cls-2" d="M468.2,552v.2c8.1.6,11.2,5.2,11.2,10.2,0,7.4-6.2,12.5-16.2,12.5s-16.5-7-16.5-13,1.3-5,3.9-5c1.6-.2,3,1,3.2,2.6,0,.2,0,.3,0,.5,0,1.5-.8,2-.8,3.9,0,3.4,2.5,7.3,10.2,7.3s10.3-2.8,10.3-9.2-3.5-7.9-9.3-7.9h-5.8v-3.8h5.8c5.3,0,8.2-2.7,8.2-7.5s-4.1-8.4-9-8.4c-6.9,0-9.8,3.9-9.8,7.3s.8,2.5.8,3.9c0,1.6-1.1,3-2.7,3.1-.2,0-.3,0-.5,0-2.5,0-3.9-2.1-3.9-5,0-6.1,5.9-13,16.2-13s14.8,4.3,14.8,11.9-2.1,8.4-10,9.4M498.6,553.3c0-19.4-15.7-35.1-35.1-35.1-19.4,0-35.1,15.7-35.1,35.1,0,19.4,15.7,35.1,35.1,35.1h0c19.4,0,35.1-15.7,35.1-35.1"/>
  </g>
  <g id="Layer_4" data-name="Layer 4">
    <path class="cls-2" d="M517.1,611.5h16.3v-21.7l-16.3,21.7ZM547.7,628h-23.9v-3.6h9.5v-8.5h-20.8v-3.9l20.7-27.4h5.5v27h8.9v4.4h-8.9v8.5h8.9v3.6ZM567.2,608c0-19.4-15.6-35.1-35-35.2-19.4,0-35.1,15.6-35.2,35,0,19.4,15.6,35.1,35,35.2,0,0,0,0,0,0,19.4,0,35.1-15.7,35.1-35.1"/>
  </g>
  <g id="Layer_5" data-name="Layer 5">
    <path class="cls-2" d="M419.9,1373.9c2.7-3.6,7-5.3,11.5-5.3,8.8,0,14.5,6.3,14.5,14.6s-5.6,15.9-16.5,15.9-16-6.6-16-12.8,1.4-5.1,3.9-5.1c1.7-.1,3.1,1.1,3.2,2.8,0,.1,0,.2,0,.3,0,1.4-.8,2-.8,3.9,0,4,3.6,7.2,9.5,7.2s10.8-4.4,10.8-11.6-4.5-11.1-10.7-11.1-8.6,1.9-10.4,5.6h-3.8l4.6-22.9h3c2.5,1.5,6.4,2.2,10.4,2.2s7.9-.8,10.5-2.4l1.1,1.6c-3.7,3.6-8.7,5.5-13.8,5.4-2.9,0-5.8-.5-8.5-1.6l-2.6,13.2ZM465.2,1376.2c0-19.4-15.7-35.1-35.1-35.1s-35.1,15.7-35.1,35.1,15.7,35.1,35.1,35.1h0c19.4,0,35.1-15.7,35.1-35.1"/>
  </g>
  <g id="Layer_6.1" data-name="Layer 6.1">
    <path class="cls-2" d="M1127.2,811c0,6.7,4.4,9.6,10.1,9.6s9.4-4.4,9.4-10.1-3.6-9.6-9.3-9.6-10.2,4.4-10.2,10.1M1126.4,800v5c1.8-5.1,6.3-7.9,12-7.9s14.3,5,14.3,13.2-6.6,14.1-15.4,14.1-17.4-7.3-17.4-21.6,7.5-22.7,18-22.7,14.2,5.4,14.2,11.2-1.3,4.6-3.8,4.6c-1.6.2-3.1-1-3.3-2.7,0-.1,0-.3,0-.4,0-1.3.7-2.1.7-3.5,0-2.6-2.3-5.6-7.9-5.6s-11.4,3.6-11.4,16.4M1172.5,802.1c0-19.4-15.7-35.1-35.1-35.1-19.4,0-35.1,15.7-35.1,35.1,0,19.4,15.7,35.1,35.1,35.1h0c19.4,0,35.1-15.7,35.1-35.1"/>
  </g>
  <g id="Layer_6.2" data-name="Layer 6.2">
    <path class="cls-2" d="M1127.2,1720.2c0,6.7,4.4,9.6,10.1,9.6s9.4-4.4,9.4-10.1-3.6-9.6-9.3-9.6-10.2,4.4-10.2,10.1M1126.4,1709.2v5c1.8-5.1,6.3-7.9,12-7.9s14.3,5,14.3,13.2-6.6,14.1-15.4,14.1-17.4-7.3-17.4-21.6,7.5-22.7,18-22.7,14.2,5.4,14.2,11.2-1.3,4.6-3.8,4.6c-1.7.1-3.2-1.1-3.3-2.8,0-.1,0-.2,0-.3,0-1.3.7-2.1.7-3.5,0-2.6-2.3-5.6-7.9-5.6s-11.4,3.6-11.4,16.4M1172.5,1711.3c0-19.4-15.7-35.1-35.1-35.1-19.4,0-35.1,15.7-35.1,35.1,0,19.4,15.7,35.1,35.1,35.1h0c19.4,0,35.1-15.7,35.1-35.1"/>
  </g>
  <g id="Layer_6.3" data-name="Layer 6.3">
    <path class="cls-2" d="M1432.8,811c0,6.7,4.4,9.6,10.1,9.6s9.4-4.4,9.4-10.1-3.6-9.6-9.3-9.6-10.2,4.4-10.2,10.1M1432,800v5c1.8-5.1,6.3-7.9,12-7.9s14.3,5,14.3,13.2-6.6,14.1-15.4,14.1-17.4-7.3-17.4-21.6,7.5-22.7,17.9-22.7,14.2,5.4,14.2,11.2-1.3,4.6-3.8,4.6c-1.6.2-3.1-1-3.3-2.7,0-.1,0-.3,0-.4,0-1.3.7-2.1.7-3.5,0-2.6-2.3-5.6-7.9-5.6s-11.4,3.6-11.4,16.4M1478,802.1c0-19.4-15.6-35.1-35-35.1-19.4,0-35.1,15.6-35.1,35,0,19.4,15.6,35.1,35,35.1,0,0,0,0,.1,0,19.3,0,35-15.7,35-35.1"/>
  </g>
</svg>