<?xml version="1.0" encoding="utf-8"?>
<!-- Generator: Adobe Illustrator 26.0.2, SVG Export Plug-In . SVG Version: 6.00 Build 0)  -->
<svg version="1.1" id="Ebene_1" xmlns="http://www.w3.org/2000/svg" xmlns:xlink="http://www.w3.org/1999/xlink" x="0px" y="0px"
	 viewBox="0 0 274.2 149.9" style="enable-background:new 0 0 274.2 149.9;" xml:space="preserve">
<g id="Ebene_2_00000148643750862539414130000015425177564590283147_">
	<g id="Ebene_1-2">
		<path d="M112.3,22h-2.8l-1.8-6.5h-6.1L99.7,22h-2.6l6.6-20.2h2L112.3,22z M107.1,13.6l-1.6-5.5c-0.2-0.8-0.4-1.4-0.6-2.1
			c-0.1-0.6-0.2-1.1-0.3-1.7h-0.1c0,0.6-0.1,1.1-0.3,1.7c-0.2,0.7-0.4,1.4-0.6,2.1l-1.7,5.6L107.1,13.6z M124.1,22H122v-1.5h-0.1
			c-0.1,0.2-0.2,0.4-0.4,0.5c-0.2,0.2-0.5,0.5-0.8,0.6c-0.3,0.2-0.7,0.4-1.1,0.5c-0.5,0.2-0.9,0.2-1.4,0.2c-0.6,0-1.1-0.1-1.7-0.3
			c-0.5-0.2-0.9-0.5-1.3-0.9c-0.4-0.5-0.7-1-0.8-1.6c-0.2-0.8-0.3-1.6-0.3-2.4V8h2.4v9c-0.1,0.9,0.1,1.8,0.6,2.5
			c0.4,0.5,1.1,0.8,1.8,0.8c0.6,0,1.2-0.2,1.7-0.5c0.4-0.3,0.8-0.6,1.1-1V8h2.4L124.1,22z M133.8,10.8c-0.3-0.3-0.5-0.5-0.9-0.7
			c-0.5-0.3-1-0.5-1.6-0.4c-0.5,0-1,0.1-1.4,0.4c-0.3,0.3-0.5,0.6-0.5,1.1c0,0.5,0.1,0.9,0.5,1.3c0.4,0.4,0.9,0.8,1.4,1.1l0.9,0.5
			c0.9,0.5,1.6,1.1,2.3,1.8c0.6,0.7,0.9,1.6,0.8,2.5c0,1.1-0.4,2.1-1.2,2.8c-0.9,0.8-2.1,1.2-3.3,1.1c-0.5,0-1-0.1-1.5-0.2
			c-0.4-0.1-0.8-0.2-1.1-0.4c-0.3-0.1-0.6-0.3-0.8-0.5c-0.2-0.2-0.4-0.3-0.5-0.5l1.1-1.9l0.4,0.4c0.2,0.2,0.4,0.3,0.6,0.5
			c0.2,0.1,0.5,0.3,0.8,0.4c0.3,0.1,0.7,0.2,1,0.1c0.6,0,1.1-0.1,1.6-0.5c0.4-0.3,0.6-0.7,0.6-1.1c0-0.3,0-0.6-0.1-0.9
			c-0.1-0.2-0.2-0.5-0.4-0.7c-0.2-0.2-0.4-0.4-0.6-0.6c-0.2-0.2-0.5-0.4-0.9-0.6l-0.9-0.6c-0.8-0.5-1.5-1.1-2.1-1.8
			c-0.5-0.7-0.8-1.5-0.7-2.4c0-1,0.4-1.9,1.2-2.6c0.4-0.3,0.8-0.6,1.3-0.8c0.5-0.2,1-0.3,1.6-0.3c0.5,0,0.9,0,1.4,0.2
			c0.4,0.1,0.7,0.2,1,0.4c0.3,0.1,0.5,0.3,0.7,0.5c0.2,0.2,0.3,0.3,0.5,0.4L133.8,10.8z M154.1,8l-4.3,14h-2.1l-1.4-4.9
			c-0.2-0.7-0.4-1.4-0.5-2c-0.1-0.6-0.2-1.1-0.3-1.7h-0.1c-0.1,0.6-0.2,1.2-0.3,1.8c-0.2,0.6-0.4,1.3-0.6,2l-1.6,4.9h-2l-4.4-14h2.5
			l2.1,8c0.2,0.7,0.4,1.4,0.5,2.1c0.1,0.6,0.2,1.2,0.2,1.8h0.1c0.1-0.6,0.2-1.2,0.4-1.8c0.2-0.6,0.4-1.3,0.6-2l1.5-4.6L143.3,8h2.5
			l2.1,7.8c0.2,0.8,0.4,1.5,0.6,2.3c0.2,0.6,0.3,1.2,0.3,1.8h0.1c0.1-0.6,0.2-1.2,0.3-1.8c0.1-0.7,0.3-1.5,0.6-2.2l2.1-7.8H154.1z
			 M155.3,18.5c0-0.7,0.1-1.4,0.5-2c0.3-0.5,0.7-1,1.2-1.4c0.6-0.4,1.2-0.6,1.9-0.7c0.7-0.1,1.5-0.2,2.3-0.2h0.7v-1.3
			c0.1-0.9-0.1-1.7-0.6-2.5c-0.5-0.5-1.1-0.7-1.8-0.7c-0.6,0-1.2,0.1-1.8,0.4c-0.4,0.2-0.8,0.5-1.1,0.8l-1-1.6
			c0.2-0.1,0.4-0.3,0.6-0.5c0.3-0.2,0.6-0.4,0.9-0.6c0.4-0.2,0.8-0.3,1.2-0.4c0.5-0.1,1-0.2,1.5-0.2c1.2-0.1,2.4,0.4,3.3,1.2
			c0.8,1.1,1.2,2.5,1.1,3.9v6.4c0,0.6,0,1.2,0,1.8c0,0.4,0.1,0.8,0.1,1.2h-2.2l-0.1-1.6h0c-0.1,0.2-0.2,0.4-0.4,0.6
			c-0.2,0.2-0.4,0.4-0.6,0.6c-0.3,0.2-0.5,0.4-0.8,0.5c-0.4,0.1-0.8,0.2-1.2,0.2c-0.5,0-1-0.1-1.5-0.3c-0.5-0.2-0.9-0.5-1.2-0.8
			c-0.3-0.4-0.6-0.8-0.8-1.2C155.4,19.5,155.3,19,155.3,18.5L155.3,18.5z M159.6,20.4c0.3,0,0.6,0,0.9-0.1c0.2-0.1,0.5-0.2,0.7-0.4
			c0.2-0.1,0.3-0.3,0.5-0.5c0.1-0.2,0.2-0.3,0.3-0.4v-3.1h-0.8c-0.9,0-1.8,0.2-2.6,0.6c-0.6,0.4-0.9,1-0.9,1.7
			c0,0.6,0.1,1.2,0.5,1.6C158.5,20.2,159,20.4,159.6,20.4L159.6,20.4z M159,3.9c0,0.4-0.1,0.8-0.4,1.1c-0.3,0.3-0.6,0.4-1,0.4
			c-0.4,0-0.7-0.1-1-0.4c-0.3-0.3-0.4-0.7-0.4-1.1c0-0.4,0.1-0.8,0.4-1.1c0.3-0.3,0.6-0.4,1-0.4c0.4,0,0.7,0.1,1,0.4
			C158.9,3.1,159,3.5,159,3.9z M163.5,3.9c0,0.4-0.1,0.8-0.4,1.1c-0.3,0.3-0.6,0.4-1,0.4c-0.4,0-0.7-0.1-1-0.4
			c-0.3-0.3-0.4-0.7-0.4-1.1c0-0.4,0.1-0.8,0.4-1.1c0.3-0.3,0.6-0.4,1-0.4c0.4,0,0.7,0.1,1,0.4C163.4,3.1,163.5,3.5,163.5,3.9z
			 M174,10.1c-0.1-0.1-0.2-0.1-0.4-0.1c-0.3-0.1-0.5-0.1-0.8-0.1c-0.6,0-1.3,0.2-1.7,0.6c-0.4,0.4-0.7,0.8-0.9,1.3V22h-2.4V8h2.2
			v1.9l0,0c0.1-0.3,0.2-0.5,0.4-0.8c0.2-0.3,0.4-0.5,0.6-0.7c0.2-0.2,0.5-0.4,0.8-0.5c0.4-0.1,0.8-0.2,1.2-0.2c0.3,0,0.5,0,0.8,0.1
			l0.5,0.2L174,10.1z M182.3,9.9h-3.1v7.8c-0.1,0.7,0.1,1.4,0.4,2c0.3,0.4,0.8,0.6,1.3,0.5c0.3,0,0.6,0,0.9-0.1
			c0.2-0.1,0.4-0.2,0.6-0.3l0.3,1.9c-0.2,0.1-0.5,0.3-0.7,0.4c-0.5,0.2-1,0.3-1.5,0.2c-1,0.1-2-0.3-2.7-1c-0.7-1-1-2.2-0.9-3.4V9.9
			h-1.7V8.3l1.7-0.3l0.3-3.9h2.1V8h3.4L182.3,9.9z M187.4,22H185V8h2.4L187.4,22z M186.2,4.6c-0.5,0-0.9-0.1-1.2-0.5
			c-0.3-0.3-0.5-0.8-0.4-1.2c0-0.4,0.1-0.9,0.4-1.2c0.3-0.3,0.7-0.5,1.2-0.5c0.4,0,0.8,0.2,1.1,0.5c0.3,0.3,0.5,0.8,0.4,1.2
			c0,0.5-0.1,0.9-0.4,1.2C187,4.4,186.6,4.6,186.2,4.6z M201.1,9.8h-1.8c0.5,0.8,0.7,1.6,0.7,2.5c0,0.7-0.1,1.4-0.4,2
			c-0.2,0.6-0.6,1.1-1,1.5c-0.4,0.4-1,0.7-1.6,0.9c-0.6,0.2-1.3,0.3-1.9,0.3h-0.4h-0.4c-0.3,0.1-0.5,0.3-0.7,0.5
			c-0.3,0.2-0.4,0.5-0.4,0.9c0,0.3,0.1,0.5,0.3,0.7c0.3,0.2,0.7,0.3,1.1,0.3h1.8c0.6,0,1.2,0.1,1.9,0.2c0.5,0.1,1,0.3,1.5,0.6
			c0.4,0.3,0.8,0.7,1,1.2c0.2,0.5,0.4,1.1,0.4,1.7c0,0.7-0.2,1.4-0.5,2.1c-0.3,0.6-0.8,1.2-1.4,1.6c-0.6,0.5-1.4,0.8-2.1,1
			c-0.9,0.3-1.9,0.4-2.8,0.4c-1.2,0.1-2.4-0.3-3.4-1c-0.8-0.7-1.2-1.7-1.2-2.8c0-0.5,0.1-0.9,0.3-1.4c0.2-0.4,0.4-0.7,0.7-1
			c0.2-0.3,0.5-0.5,0.8-0.7l0.6-0.4v-0.1c-0.6-0.5-1-1.2-0.9-2c0-0.3,0.1-0.7,0.2-1c0.1-0.3,0.3-0.5,0.5-0.7
			c0.2-0.2,0.4-0.3,0.6-0.4c0.1-0.1,0.3-0.2,0.4-0.2v-0.1c-0.7-0.3-1.3-0.9-1.7-1.6c-0.5-0.8-0.7-1.8-0.6-2.7c0-0.7,0.1-1.4,0.4-2.1
			c0.2-0.6,0.6-1.1,1-1.5c0.4-0.4,1-0.7,1.5-0.9c0.6-0.2,1.2-0.3,1.9-0.3c0.6,0,1.3,0.1,1.9,0.3h4.3L201.1,9.8z M194.6,21.6
			c-0.4,0-0.7,0-1.1-0.1c-0.2,0.1-0.4,0.2-0.5,0.4c-0.2,0.1-0.3,0.3-0.5,0.5c-0.1,0.2-0.3,0.4-0.3,0.7c-0.1,0.3-0.2,0.6-0.2,1
			c0,1.5,0.8,2.2,2.5,2.2c1.1,0.1,2.2-0.2,3.2-0.8c0.6-0.4,1-1.2,1-1.9c0.1-0.6-0.2-1.1-0.6-1.5c-0.5-0.3-1.1-0.5-1.7-0.4
			L194.6,21.6z M197.7,12.3c0.1-0.8-0.2-1.6-0.7-2.2c-0.5-0.4-1.1-0.7-1.7-0.6c-0.6,0-1.3,0.2-1.8,0.6c-0.5,0.6-0.8,1.4-0.7,2.2
			c-0.1,0.8,0.2,1.6,0.7,2.2c0.5,0.4,1.1,0.7,1.7,0.6c0.7,0,1.3-0.2,1.8-0.6C197.5,13.9,197.8,13.1,197.7,12.3L197.7,12.3z
			 M212.6,12.7c0,0.6,0,1.1-0.1,1.6s-0.1,0.8-0.1,1.2h-7.2c0,1.3,0.3,2.6,1.1,3.7c0.7,0.8,1.7,1.2,2.7,1.2c0.4,0,0.7,0,1.1-0.1
			c0.3-0.1,0.6-0.2,0.9-0.4c0.2-0.1,0.4-0.3,0.6-0.4c0.1-0.1,0.2-0.2,0.3-0.4l0.9,1.7c-0.1,0.1-0.2,0.2-0.4,0.4
			c-0.2,0.2-0.5,0.4-0.8,0.6c-0.4,0.2-0.8,0.4-1.2,0.5c-1.4,0.3-2.8,0.3-4.1-0.2c-0.7-0.3-1.3-0.8-1.8-1.4c-0.5-0.7-0.9-1.5-1.2-2.3
			c-0.3-1.1-0.4-2.3-0.4-3.4c0-1.1,0.1-2.2,0.4-3.2c0.2-0.8,0.6-1.6,1.1-2.2c0.5-0.6,1-1,1.7-1.3c0.7-0.3,1.4-0.4,2.1-0.4
			c1.2-0.1,2.3,0.4,3.2,1.3C212.3,10,212.7,11.3,212.6,12.7L212.6,12.7z M208.2,9.6c-0.8,0-1.5,0.4-2,1c-0.6,0.9-0.9,2-0.9,3.1h5.1
			c0-0.1,0-0.3,0.1-0.4c0-0.2,0-0.4,0-0.6c0-0.8-0.2-1.6-0.6-2.3C209.5,9.8,208.8,9.5,208.2,9.6L208.2,9.6z M221.8,10.8
			c-0.3-0.3-0.5-0.5-0.9-0.7c-0.5-0.3-1-0.5-1.6-0.4c-0.5,0-1,0.1-1.4,0.4c-0.3,0.3-0.5,0.6-0.5,1.1c0,0.5,0.1,0.9,0.4,1.3
			c0.4,0.4,0.9,0.8,1.4,1.1l0.9,0.5c0.8,0.5,1.6,1.1,2.2,1.8c0.6,0.7,0.9,1.6,0.8,2.5c0,1.1-0.4,2.1-1.1,2.8
			c-0.9,0.8-2.1,1.2-3.3,1.1c-0.5,0-1-0.1-1.5-0.2c-0.4-0.1-0.8-0.2-1.1-0.4c-0.3-0.1-0.6-0.3-0.8-0.5c-0.2-0.2-0.4-0.4-0.5-0.5
			l1.1-1.9c0.1,0.1,0.3,0.3,0.4,0.4c0.2,0.2,0.4,0.3,0.6,0.5c0.2,0.2,0.5,0.3,0.8,0.4c0.3,0.1,0.7,0.2,1,0.1c0.6,0,1.1-0.1,1.6-0.5
			c0.4-0.3,0.6-0.7,0.6-1.1c0-0.3,0-0.6-0.1-0.9c-0.1-0.2-0.2-0.5-0.4-0.7c-0.2-0.2-0.4-0.4-0.6-0.6l-0.9-0.6l-0.9-0.6
			c-0.8-0.5-1.4-1.1-2-1.8c-0.5-0.7-0.8-1.5-0.8-2.4c0-1,0.4-1.9,1.2-2.6c0.4-0.3,0.8-0.6,1.3-0.8c0.5-0.2,1-0.3,1.6-0.3
			c0.5,0,0.9,0,1.4,0.2c0.3,0.1,0.7,0.2,1,0.4c0.3,0.1,0.5,0.3,0.7,0.5l0.4,0.4L221.8,10.8z M245.1,22h-2.8l-1.8-6.5h-6.1l-1.8,6.5
			H230l6.6-20.2h2L245.1,22z M240,13.6l-1.6-5.5c-0.2-0.8-0.4-1.4-0.6-2.1c-0.1-0.6-0.2-1.1-0.3-1.7h-0.1c0,0.6-0.1,1.1-0.3,1.7
			c-0.2,0.7-0.4,1.4-0.6,2.1l-1.7,5.6H240z M254.5,22v-9c0.1-0.9-0.1-1.7-0.5-2.5c-0.4-0.5-1-0.8-1.6-0.8c-0.3,0-0.7,0-1,0.1
			c-0.3,0.1-0.6,0.2-0.8,0.4c-0.2,0.1-0.4,0.3-0.6,0.5c-0.2,0.2-0.3,0.3-0.4,0.5V22h-2.4V8h2.2v1.6h0.1c0.1-0.2,0.3-0.4,0.4-0.6
			c0.2-0.2,0.5-0.5,0.7-0.6c0.3-0.2,0.6-0.4,1-0.5c0.4-0.1,0.9-0.2,1.3-0.2c1.4-0.1,2.7,0.6,3.4,1.9c0.2-0.2,0.4-0.4,0.6-0.6
			c0.2-0.2,0.5-0.4,0.8-0.6c0.3-0.2,0.7-0.4,1-0.5c0.4-0.1,0.9-0.2,1.3-0.2c2.8,0,4.3,1.7,4.3,5V22h-2.4v-9c0.1-0.9-0.1-1.7-0.6-2.5
			c-0.4-0.5-1.1-0.8-1.8-0.8c-0.6,0-1.2,0.2-1.6,0.5c-0.4,0.3-0.7,0.6-1,0.9c0,0.2,0.1,0.5,0.1,0.7c0,0.2,0,0.5,0,0.8V22H254.5z
			 M273.8,9.9h-3.1v7.8c-0.1,0.7,0.1,1.4,0.4,2c0.3,0.4,0.8,0.6,1.3,0.5c0.3,0,0.6,0,0.9-0.1c0.2-0.1,0.4-0.2,0.6-0.3l0.3,1.9
			c-0.2,0.1-0.5,0.3-0.7,0.4c-0.5,0.2-1,0.3-1.5,0.2c-1,0.1-2-0.3-2.7-1c-0.7-1-1-2.2-0.9-3.4V9.9h-1.7V8.3l1.7-0.3l0.3-3.9h2.1V8
			h3.4L273.8,9.9z"/>
		<polygon points="77.3,2.3 81,2.3 81,51.5 72.4,51.5 72.4,2.3 		"/>
		<polygon points="77.3,149 81,149 81,149.9 72.4,149.9 72.4,149 		"/>
		<polygon points="77.3,97.6 81,97.6 81,100.7 72.4,100.7 72.4,97.6 		"/>
		<polygon points="77.3,144.1 81,144.1 81,145 72.4,145 72.4,144.1 		"/>
		<polygon points="77.3,139.1 81,139.1 81,140.1 72.4,140.1 72.4,139.1 		"/>
		<polygon points="77.3,134.2 81,134.2 81,135.1 72.4,135.1 72.4,134.2 		"/>
		<polygon points="77.3,129.3 81,129.3 81,130.2 72.4,130.2 72.4,129.3 		"/>
		<polygon points="77.3,124.4 81,124.4 81,125.3 72.4,125.3 72.4,124.4 		"/>
		<polygon points="77.3,119.5 81,119.5 81,120.4 72.4,120.4 72.4,119.5 		"/>
		<polygon points="77.3,114.6 81,114.6 81,115.5 72.4,115.5 72.4,114.6 		"/>
		<polygon points="77.3,109.6 81,109.6 81,110.6 72.4,110.6 72.4,109.6 		"/>
		<polygon points="77.3,104.7 81,104.7 81,105.6 72.4,105.6 72.4,104.7 		"/>
		<polygon points="77.3,91.5 81,91.5 81,94.6 72.4,94.6 72.4,91.5 		"/>
		<polygon points="77.3,85.3 81,85.3 81,88.4 72.4,88.4 72.4,85.3 		"/>
		<polygon points="77.3,79.2 81,79.2 81,82.3 72.4,82.3 72.4,79.2 		"/>
		<polygon points="77.3,73.1 81,73.1 81,76.1 72.4,76.1 72.4,73.1 		"/>
		<polygon points="77.3,66.9 81,66.9 81,70 72.4,70 72.4,66.9 		"/>
		<polygon points="77.3,60.8 81,60.8 81,63.8 72.4,63.8 72.4,60.8 		"/>
		<polygon points="77.3,54.6 81,54.6 81,57.7 72.4,57.7 72.4,54.6 		"/>
		<path d="M50,19.5c2.5,4,4.5,3.9,7.5,3.9c-1.9-1.5-3.6-3.4-4.9-5.5L48,10.6c-0.5-2.3-1.6-4.4-3.4-6c0.5-0.2,1-0.4,1.4-0.7
			c-3,0-6-1.5-7.6-1.5c-0.8-0.1-1.6,0.5-1.7,1.3c0,0,0,0.1,0,0.1c0.1,0.9,1,1.9,2.8,1.9c0.5,0,1-0.1,1.5-0.2c1,1.2,1.6,2.7,1.7,4.3
			c0,3.2-3.9,5.7-7.7,5.7h-0.7c-0.4-0.8-1.5-2.1-1.5-3.7c0-2.6,1.7-4.7,1.7-7.2c0-1.1-0.4-2.1-1.1-3c0.5-0.4,0.8-0.8,1.1-1.3
			c-0.4,0.1-0.7,0.2-1.1,0.1c-1.9,0-3.4-0.5-4.9-0.5c-0.9,0-1.1,0.3-1.1,0.5c0,0.1,0,0.2,0,0.2c-0.3-0.1-0.7-0.2-1-0.3
			c-0.4-0.1-0.9-0.1-1.3-0.1c-1.8,0-2.4,0.8-2.4,1.4c0.1,0.8,0.4,1.6,0.9,2.3c0.6-0.3,1.3-0.5,1.9-0.6c1,0,1.8,0.9,2.3,2
			c-0.5,0.1-0.9,0.1-1.4,0.1c-1.1,0-2.2-0.3-3.2-0.6c0,0-0.1,0-0.1,0.1c0,0.2,0.5,0.9,1.5,1.2c1.2,0.4,2.4,0.6,3.6,0.8
			c-0.1,0.3-0.4,0.6-0.7,0.8c-0.1,0-0.2,0-0.2,0c-1.2-0.2-2.3-0.5-3.4-1c0,0-0.1,0-0.1,0.1c0,0.7,1.8,2.2,3.3,2.7
			c-1.3,1.7-2.9,3.4-3.7,6h-0.6c-3.9,0-7.7-2.5-7.7-5.7c0.1-1.6,0.7-3.1,1.7-4.2c0.5,0.1,1,0.1,1.4,0.1c1.8,0,2.7-1,2.8-1.9
			c0-0.8-0.8-1.5-1.6-1.5c0,0-0.1,0-0.1,0c-1.6,0-4.6,1.5-7.6,1.5c0.4,0.3,0.9,0.5,1.4,0.7c-1.7,1.6-2.9,3.7-3.4,6L4.8,18
			c-1.3,2.1-2.9,4-4.8,5.5c3,0,5,0.1,7.5-3.9l2.3-3.8c0.2,0.5,0.4,1,0.6,1.4l-4.7,7.5c-1.3,2.1-2.9,4-4.9,5.5c3,0,5,0.1,7.5-3.9
			l4-6.5c0.3,0.3,0.6,0.6,0.9,0.9l-5.6,9.1c-1.3,2.1-2.9,4-4.9,5.5c3,0,5,0.1,7.5-3.9l5.6-8.9c0.4,0.2,0.7,0.5,1.1,0.7l-6.8,10.8
			c-1.3,2.1-2.9,4-4.9,5.5c3,0,5,0.1,7.5-3.9l7-11.2c0.4,0.1,0.8,0.3,1.3,0.4l-7.9,12.6c-1.3,2.1-2.9,4-4.9,5.5c3,0,4.9,0.1,7.5-3.9
			l8.4-13.5h0.2c0.2,0.7,0.4,1.4,0.4,2.1c0,4.2-2.8,8-6.1,10.8c0.3,0.1,0.6,0.1,0.9,0.1c0.5,0,0.9,0,1.4-0.1c-0.9,1.8-2,3.6-3.3,5.2
			c-1.2-0.2-2.5-0.3-3.7-0.3c-1.1,0-1.2,0.6-1.2,1.2c0,0.8,0.4,1.7,1,2.2c0.2-0.5,0.6-1.2,2.6-1.2h0.2c-0.6,0.7-2.4,2.1-2.4,3.3
			c0.1,1.1,0.9,1.9,2,2c0-0.2-0.1-0.4-0.1-0.7c0.2-1.1,0.8-2.1,1.6-2.9c0,0.2,0,0.3,0,0.5c0,2.3,0.2,3.3,1.7,3.3
			c0.5,0,1-0.2,1.4-0.5c-0.8-0.7-1.2-1.8-1-2.8c0-0.3,0-0.7,0-1.1c0-0.3,0-0.7,0-1c0.4-0.1,0.7-0.1,1.1,0c0,0,2.1-0.2,2.6,0.9
			c0.6-0.5,1.4-1.2,1.4-2c0-0.5-0.2-1.1-1.3-1.1c-0.4,0-1.7,0.2-2.7,0.2c0.8-1.4,1.7-2.6,2.6-3.8c0.2,0.6,0.5,1.1,1,1.5
			c0.2-1.9,0.8-3.7,1.9-5.2c0.3,1.5,0.4,3,0.4,4.5c0,5.7-1.4,9.9-4.3,10.7c0.4,0.7,1.2,1.2,2,1.2c1.1,0,1.6-1.2,2.2-2.3
			c0.3,0.8,1.2,2.9,2,2.9s1.7-2,2-2.9c0.6,1.1,1.2,2.3,2.3,2.3c0.8-0.1,1.6-0.5,2-1.2c-2.9-0.8-4.3-5-4.3-10.7c0-1.5,0.1-3,0.4-4.5
			c1.1,1.5,1.7,3.3,1.9,5.2c0.5-0.4,0.8-0.9,1-1.5c1,1.2,1.9,2.5,2.7,3.8c-1.1,0-2.3-0.2-2.7-0.2c-1.1,0-1.3,0.6-1.3,1.1
			c0,0.8,0.8,1.5,1.4,2c0.5-1.1,2.6-0.9,2.6-0.9c0.4,0,0.8,0,1.1,0.1c0,0.3,0,0.7,0,1v1.1c0,1.3,0,2-1,2.8c0.4,0.3,0.9,0.5,1.4,0.5
			c1.5,0,1.7-1.1,1.7-3.3c0-0.2,0-0.3,0-0.5c0.8,0.8,1.4,1.8,1.6,2.9c0,0.2,0,0.5-0.1,0.7c1.1-0.1,1.9-0.9,2-2
			c0-1.2-1.8-2.7-2.4-3.3H41c2,0,2.4,0.7,2.6,1.2c0.6-0.6,1-1.4,1-2.2c0-0.6-0.1-1.2-1.2-1.2c-1.2,0-2.5,0.1-3.7,0.3
			c-1.2-1.6-2.3-3.4-3.3-5.2c0.5,0.1,1,0.1,1.4,0.1c0.3,0,0.6,0,0.9-0.1c-3.4-2.8-6.1-6.6-6.1-10.8c0-0.7,0.2-1.4,0.4-2.1h0.2
			l8.4,13.4c2.5,4,4.5,3.9,7.5,3.9c-1.9-1.5-3.6-3.4-4.9-5.5l-7.9-12.7c0.4-0.1,0.8-0.3,1.3-0.4l7,11.2c2.5,4,4.5,3.9,7.5,3.9
			c-1.9-1.5-3.6-3.4-4.9-5.5l-6.8-10.8c0.4-0.2,0.8-0.4,1.1-0.7l5.6,8.9c2.5,4,4.5,3.9,7.5,3.9c-1.9-1.5-3.6-3.4-4.9-5.5l-5.7-9.1
			c0.4-0.3,0.7-0.6,1-0.9l4,6.5c2.5,4,4.5,3.9,7.5,3.9c-1.9-1.5-3.6-3.4-4.9-5.5L47,17.2c0.3-0.5,0.5-0.9,0.6-1.4L50,19.5z
			 M12.3,10.9c0.1-2.2,1.1-4.2,2.8-5.7l0.5,0.1c-1.2,1.2-2,2.8-2.1,4.6c0,4.1,4.4,7.7,9.3,7.7c0,0.4-0.1,0.7,0,1.1
			c0,0.6,0,1.1,0.1,1.7C17.3,20.4,12.3,15.8,12.3,10.9z M19.9,44.5L19.9,44.5L19.9,44.5c1,0.1,2,0,2.9-0.1c0.2,0,0.4-0.1,0.7-0.1
			c0.4,0,0.7,0,0.7,0.5c-0.1,0.5-0.4,0.9-0.8,1.2c-0.7-0.5-1.7-0.8-2.6-0.7c-0.6,0-1.1,0.1-1.7,0.2h-0.1v0.2
			c0.1,0.4,0.1,0.9,0.1,1.3v1.1c-0.1,0.9,0.1,1.9,0.6,2.7c-0.1,0-0.3,0.1-0.4,0.1c-0.8,0-1.1-0.4-1.1-2.8c0-0.5,0-0.9,0-1.2v-0.4
			l-0.1,0.1c-1.2,0.9-2.5,2.6-2.6,3.9c-0.4-0.3-0.7-0.7-0.8-1.2c0-0.7,1-1.7,2.2-2.9l0.7-0.7l0.1-0.1l-0.2,0
			c-0.4-0.1-0.8-0.2-1.1-0.2c-1-0.1-2,0.2-2.7,0.8c-0.2-0.4-0.3-0.8-0.4-1.3c0-0.2,0-0.4,0.1-0.5c0.1-0.1,0.3-0.1,0.4-0.1l0,0
			c1.3,0,2.6,0.2,3.9,0.4l0,0l0,0c1.4-1.8,2.6-3.8,3.7-5.9c0.2-0.1,0.4-0.1,0.6-0.1c0.5,0,0.7,0.4,0.9,1
			C21.8,41.1,20.7,42.8,19.9,44.5z M35.1,38.6c0.2,0,0.4,0,0.6,0.1c1,2.1,2.3,4.1,3.7,5.9l0,0h0c1.3-0.2,2.6-0.3,3.9-0.4l0,0
			c0.2,0,0.3,0,0.5,0.1c0.1,0.1,0.2,0.3,0.1,0.5c0,0.4-0.1,0.9-0.3,1.3c-0.7-0.6-1.7-0.9-2.7-0.8c-0.4,0-0.8,0.1-1.1,0.2h-0.1h-0.1
			l0.8,0.8c1.2,1.2,2.2,2.2,2.2,2.9c-0.1,0.5-0.4,0.9-0.8,1.2c-0.1-1.3-1.3-2.9-2.6-3.9l-0.1-0.1v0.4c0,0.3,0,0.8,0,1.2
			c0,2.4-0.2,2.8-1.1,2.8c-0.2,0-0.3,0-0.5-0.1c0.5-0.8,0.8-1.7,0.7-2.7v-1c0-0.4,0-0.9,0.1-1.3v-0.2h-0.1c-0.5-0.1-1.1-0.1-1.7-0.2
			c-0.9-0.1-1.8,0.1-2.5,0.6c-0.4-0.3-0.7-0.7-0.8-1.2c0-0.5,0.3-0.5,0.7-0.5c0.2,0,0.4,0,0.7,0.1c0.9,0.1,1.9,0.2,2.8,0.2h0.1v-0.1
			c-0.8-1.8-1.9-3.5-3.2-4.9C34.4,39,34.6,38.6,35.1,38.6z M28.6,5.9c-0.2-0.7-0.5-1.4-1-2c-0.5-0.7-1.3-1.1-2.1-1.1
			c-0.6,0-1.1,0.2-1.6,0.4c-0.3-0.4-0.4-0.9-0.5-1.4c0-0.4,0.6-0.7,1.8-0.7c2.5,0,4.1,1.1,4.1,3.1C29.1,4.8,28.9,5.4,28.6,5.9z
			 M29.7,3.4c-0.1-0.5-0.3-1-0.6-1.4c0-0.5,0.2-1,1-0.6C29.7,1.9,30,2.6,30,2.6s0.9-0.4,0.7-1C32.1,1.9,31.1,3.7,29.7,3.4z
			 M34.7,20.4c0.1-0.6,0.1-1.1,0.1-1.7c0-0.4,0-0.7,0-1.1C39.7,17.6,44,14,44,10c-0.1-1.7-0.9-3.3-2.1-4.6l0.5-0.1
			c1.6,1.4,2.6,3.5,2.8,5.7C45.1,15.8,40.2,20.3,34.7,20.4L34.7,20.4z"/>
	</g>
</g>
</svg>
