<?xml version="1.0" encoding="utf-8"?>
<!-- Generator: Adobe Illustrator 28.1.0, SVG Export Plug-In . SVG Version: 6.00 Build 0)  -->
<svg version="1.1" id="Ebene_1" xmlns="http://www.w3.org/2000/svg" xmlns:xlink="http://www.w3.org/1999/xlink" x="0px" y="0px"
	 viewBox="0 0 199.3 68.3" style="enable-background:new 0 0 199.3 68.3;" xml:space="preserve">
<style type="text/css">
	.st0{fill:#FF5C50;}
	.st1{fill:#0000FF;}
	.st2{fill:#FF5C50;enable-background:new    ;}
	.st3{fill:#0000FF;enable-background:new    ;}
	.st4{enable-background:new    ;}
</style>
<g>
	<g>
		<path class="st0" d="M99.6,28.7v9.3h3.1C102.5,34.4,101.5,31.1,99.6,28.7z"/>
		<path class="st0" d="M102.7,42h-3c0,0.3-0.1,0.5-0.1,0.8v6.3C101.5,47.2,102.5,44.6,102.7,42z"/>
		<path class="st0" d="M165.1,0H99.6v2.8h65.6c17.3,0,31.4,14.1,31.4,31.4s-14.1,31.4-31.4,31.4H99.6v2.8h65.6
			c18.8,0,34.1-15.3,34.1-34.1S184,0,165.1,0z"/>
		<path class="st0" d="M135.7,25.5v3h5.8l-0.2,15.6c-0.1,4.9,3,7.7,7.5,7.7c5.2,0,8.2-4.2,9.2-10.4h0.1l-0.5,10.3h0.5
			c3.8-0.2,6.3-0.4,9.6-0.4v-3H162V25.5h-11.8v3h7.2V36c0,6-1.8,12.6-7,12.6c-2.7,0-4.7-1.7-4.7-5.5l0.2-17.7H135.7z"/>
		<path class="st0" d="M114.7,25.2c-3.9,0.2-6.7,0.4-10.1,0.4v3h6.1v19.9h-5.6v3h15.2v-3h-5v-7.6c0-6,1.8-12.6,7.1-12.6
			c2.7,0,4.6,1.7,4.6,5.1v15.1h-5v3h15.2v-3h-5.6V32.9c0-4.6-3-7.9-7.6-7.9c-5.2,0-8.1,4.2-9.1,10.4h-0.2l0.5-10.3H114.7z"/>
	</g>
	<g>
		<path class="st1" d="M91.9,25c-6.5,0-12.3,5.6-12.3,13.5c0,7.9,5.8,13.6,12.7,13.6c3.2,0,5.6-1.1,7.3-2.9v-6.3
			c-0.6,4-3.1,6.4-7.2,6.4c-4.8,0-7.6-3.2-7.6-10.2v-1h14.8v-9.3C97.8,26.4,95.2,25,91.9,25z M84.9,35.7c0.5-5.9,3.6-7.9,6.9-7.9
			c5.2,0,6.8,5,6.9,7.9H84.9z"/>
		<path class="st1" d="M99.6,65.5H34.1c-17.3,0-31.4-14.1-31.4-31.4S16.9,2.8,34.1,2.8h65.4V0H34.1C15.3,0,0,15.3,0,34.1
			s15.3,34.1,34.1,34.1h65.4V65.5z"/>
		<polygon class="st1" points="78,19.2 78,16.3 63.2,16.3 54.9,42.8 46.7,16.3 31.7,16.3 31.7,19.2 39.3,19.2 39.3,48.3 31.7,48.3 
			31.7,51.3 50,51.3 50,48.3 42.3,48.3 42.3,19 42.9,19 53,51.3 55.1,51.3 65.1,19 65.7,19 65.7,48.3 58,48.3 58,51.3 78,51.3 
			78,48.3 70.4,48.3 70.4,19.2 		"/>
	</g>
</g>
</svg>
