<?xml version="1.0" encoding="utf-8"?>
<!-- Generator: Adobe Illustrator 28.1.0, SVG Export Plug-In . SVG Version: 6.00 Build 0)  -->
<svg version="1.1" id="Ebene_1" xmlns="http://www.w3.org/2000/svg" xmlns:xlink="http://www.w3.org/1999/xlink" x="0px" y="0px"
	 viewBox="0 0 597.1 96.4" style="enable-background:new 0 0 597.1 96.4;" xml:space="preserve">
<style type="text/css">
	.st0{fill:#FF5C50;}
	.st1{fill:#0000FF;}
	.st2{fill:#FF5C50;enable-background:new    ;}
	.st3{fill:#0000FF;enable-background:new    ;}
	.st4{enable-background:new    ;}
</style>
<g>
	<g>
		<path class="st2" d="M338.4,47c-0.5-14.2-8.1-26.1-21.5-26.1c-8.1,0-15.6,4.3-20.2,11.4v31.1c4.6,7.1,12.3,11.5,20.9,11.5
			c13.4,0,20.3-10.2,20.8-20h-6c-0.7,8.9-5.9,14.4-14.5,14.4c-9.6,0-15.2-6.4-15.2-20.3v-2H338.4z M316.7,26.4
			c10.3,0,13.5,10,13.8,15.8h-27.6C304,30.4,310,26.4,316.7,26.4z"/>
		<path class="st2" d="M363,0h-1c-5.9,0.5-10.8,0.7-16.5,0.7h-4.7v6.1h13.1v60.7h-11.2v5.9h31v-5.9H363V0z"/>
		<path class="st2" d="M527.8,36.6c0-9.2-5.9-15.7-15.1-15.7c-10.3,0-16.2,8.4-18.2,20.8h-0.3l1-20.5h-1c-7.8,0.5-13.4,0.7-20.1,0.7
			v5.9h12.2v39.7h-11.2v5.9h30.3v-5.9h-10V52.4c0-12,3.6-25.2,14.1-25.2c5.4,0,9.2,3.4,9.2,10.2v30.1h-10.1v5.9h30.3v-5.9h-11.1
			V36.6z"/>
		<path class="st2" d="M584.3,64.7c-4.7,0-19.5,1.8-24.7,1.8c-7.2,0-9.6-3.3-9.6-7c0-3.4,2-5.9,5.5-6.7c3.5,2.3,8.2,3.6,13.7,3.6
			c13.1,0,21.3-7.4,21.3-17.8c0-7.4-4.3-13.3-11.6-16.1c0.4-7.7,3.2-10.2,7.1-10.2c3.1,0,4.5,2,4.5,3.7c0,2.4-2.3,2.8-2.3,5.2
			c0,2.1,1.6,3.2,3.6,3.2c2.8,0,5.3-2.4,5.3-6.6c0-5-3.6-9.9-10.6-9.9c-5.7,0-11.9,3-12.6,13.3c-1.5-0.2-3.1-0.3-4.7-0.3
			c-13,0-21.3,7.5-21.3,17.7c0,4.8,1.7,8.9,4.8,12c-5.5,1.3-9.6,5.3-9.6,11.3c0,6.4,4.4,11.7,9.9,12.5c-4,1.2-6.6,3.9-6.6,8.3
			c0,7.7,7.9,13.7,22.8,13.7c17.7,0,27.9-8.1,27.9-19.1C597.1,70.3,592.9,64.7,584.3,64.7z M557.2,37.9c0-8.6,5.4-11.6,12-11.6
			c6.7,0,12,3,12,11.6v1.5c0,8.6-5.3,11.6-12,11.6c-6.6,0-12-3-12-11.6V37.9z M570.1,91c-11.9,0-16.6-4.4-16.6-10.1
			c0-3.1,1.5-5.8,5.4-6.5l24-0.8c4.4-0.2,6.7,2.1,6.7,6C589.6,87.4,580.8,91,570.1,91z"/>
		<path class="st2" d="M459.3,21.9h-23.6v5.9h14.5v15.1c0,12-3.6,25.2-14.1,25.2c-5.4,0-9.4-3.4-9.3-10.9l0.5-35.3h-20.6v5.9h11.6
			L417.8,59c-0.2,9.8,5.9,15.4,15,15.4c10.4,0,16.3-8.4,18.3-20.8h0.2l-1,20.5h1c7.5-0.5,12.7-0.7,19.1-0.7v-5.9h-11.1V21.9z"/>
		<path class="st2" d="M398.6,0h-1c-5.9,0.5-10.8,0.7-16.5,0.7h-4.7v6.1h13.1v60.7h-11.2v5.9h31v-5.9h-10.7V0z"/>
	</g>
	<g>
		<path class="st3" d="M131.6,21.9H108v5.9h14.5v15.1c0,12-3.6,25.2-14.1,25.2c-5.4,0-9.4-3.4-9.3-10.9l0.5-35.3H79v5.9h11.6
			L90.1,59c-0.2,9.8,5.9,15.4,15,15.4c10.4,0,16.3-8.4,18.3-20.8h0.2l-1,20.5h1c7.5-0.5,12.7-0.7,19.1-0.7v-5.9h-11.1V21.9z"/>
		<path class="st3" d="M45.6,1.7h-9.4L12.9,67.5H0v5.9h35.8v-5.9H19.5L27.3,45h23.9l7.7,22.5H42.6v5.9h39.2v-5.9h-13L45.6,1.7z
			 M29.4,38.9l9.9-28.2L49,38.9H29.4z"/>
		<path class="st3" d="M230.1,45.5c-4-1.3-11.4-2.8-15.5-4.1c-5.1-1.5-7-3.3-7-7.3c0-5,3.3-8.4,9.4-8.4c8.9,0,13.9,6.9,15.8,17.5
			h5.6V20.9h-5.5l-2,10.7c-2.8-6.5-7.9-10.7-15-10.7c-9.4,0-16.1,5.8-16.1,15.2c0,8,4.5,11.9,12,13.9c3,0.8,8.8,1.8,13.5,3.2
			c4.5,1.4,8,2.9,8,8.4c0,5.7-4,8.1-10.2,8.1c-11.1,0-17.6-7.9-18.6-19.2h-5.7v23.9h5.6l1.5-11.8c3.8,8.2,10.4,12.3,18.8,12.3
			c9.6,0,16.3-5.2,16.3-15.4C241,50.5,236,47.3,230.1,45.5z"/>
		<path class="st3" d="M179.4,45.5c-4-1.3-11.4-2.8-15.5-4.1c-5.1-1.5-7-3.3-7-7.3c0-5,3.3-8.4,9.4-8.4c8.9,0,13.9,6.9,15.8,17.5
			h5.6V20.9h-5.5l-2,10.7c-2.8-6.5-7.9-10.7-15-10.7c-9.4,0-16.1,5.8-16.1,15.2c0,8,4.5,11.9,12,13.9c3,0.8,8.8,1.8,13.5,3.2
			c4.5,1.4,8,2.9,8,8.4c0,5.7-4,8.1-10.2,8.1c-11.1,0-17.6-7.9-18.6-19.2h-5.7v23.9h5.6l1.5-11.8c3.8,8.2,10.4,12.3,18.8,12.3
			c9.6,0,16.3-5.2,16.3-15.4C190.3,50.5,185.3,47.3,179.4,45.5z"/>
		<path class="st3" d="M296.7,32.3c-2.8,4.3-4.4,9.6-4.4,15.5c0,5.9,1.6,11.3,4.4,15.6V32.3z"/>
		<path class="st3" d="M281.1,60.1c0,5.4-3.3,7.8-8.1,7.8c-4.4,0-7.5-2.3-7.5-8.2V29.3h17.9v-7.4h-17.9V3.3h-4.3v3.6
			c0,11.1-3.4,16.2-14.8,16.2h-1.8v6.2h12.3c0,10.5-0.7,20.9-0.7,31.4c0,9.3,6,14.2,15.2,14.2c8.9,0,14.6-5.5,14.6-14.4v-11h-4.9
			V60.1z"/>
	</g>
</g>
</svg>
