<?xml version="1.0" encoding="utf-8"?>
<!-- Generator: Adobe Illustrator 28.1.0, SVG Export Plug-In . SVG Version: 6.00 Build 0)  -->
<svg version="1.1" id="Ebene_1" xmlns="http://www.w3.org/2000/svg" xmlns:xlink="http://www.w3.org/1999/xlink" x="0px" y="0px"
	 viewBox="0 0 745 96" style="enable-background:new 0 0 745 96;" xml:space="preserve">
<style type="text/css">
	.st0{fill:#FF5C50;}
	.st1{fill:#0000FF;}
	.st2{fill:#FF5C50;enable-background:new    ;}
	.st3{fill:#0000FF;enable-background:new    ;}
	.st4{enable-background:new    ;}
</style>
<g>
	<g>
		<path class="st2" d="M372,23v6.5c4.4,3.3,6.1,9.4,6.3,13.4H372v4.8h14.2C385.8,36.3,380.9,26.5,372,23z"/>
		<path class="st2" d="M426.4,21.6c-8.9,0-14.3,8.1-16.5,20.8h-0.3l1-20.5h-1c-7.8,0.5-13.5,0.7-20.1,0.7v5.9h12.2v39.7h-11.2v5.9
			h33.8v-5.9h-13.5V51.8c0-10.7,4.2-24.5,12.7-24.5c3.1,0,4.7,1.9,4.7,4.9c0,1.1-0.1,2.3-0.1,3.2c0,2.8,2,4.3,4.7,4.3
			c3.5,0,5.1-2.4,5.1-6.5C437.9,26.4,433.4,21.6,426.4,21.6z"/>
		<path class="st2" d="M372,68.8v5.9c9.1-2.7,13.8-11,14.2-19.1h-6C379.7,62,376.8,66.7,372,68.8z"/>
		<rect x="472.1" class="st2" width="9.9" height="11.9"/>
		<rect x="444.1" y="61.9" class="st2" width="10.6" height="12.2"/>
		<polygon class="st2" points="482,22.6 460.9,22.6 460.9,28.5 473,28.5 473,68.2 461.9,68.2 461.9,74.1 492.9,74.1 492.9,68.2 
			482,68.2 		"/>
		<path class="st2" d="M677.4,47.7c-0.5-14.2-8.1-26.1-21.5-26.1c-13,0-24.6,11.2-24.6,26.9c0,15.8,11.6,27.1,25.3,27.1
			c13.4,0,20.3-10.2,20.8-20h-6c-0.7,8.9-5.9,14.4-14.5,14.4c-9.6,0-15.2-6.4-15.2-20.3v-2H677.4z M655.7,27.1
			c10.3,0,13.5,10,13.8,15.8h-27.6C643,31.1,649,27.1,655.7,27.1z"/>
		<path class="st2" d="M734.4,68.2V37.3c0-9.2-5.9-15.7-15.1-15.7c-10.3,0-16.2,8.4-18.2,20.8h-0.3l1-20.5h-1
			c-7.8,0.5-13.4,0.7-20.1,0.7v5.9h12.2v39.7h-11.2v5.9H712v-5.9h-10V53.1c0-12,3.6-25.2,14.1-25.2c5.4,0,9.2,3.4,9.2,10.2v30.1
			h-10.1v5.9h30.3v-5.9H734.4z"/>
		<path class="st2" d="M550.2,37.3c0-9.2-5.9-15.7-15.1-15.7c-10.3,0-16.2,8.4-18.2,20.8h-0.3l1-20.5h-1c-7.8,0.5-13.4,0.7-20.1,0.7
			v5.9h12.2v39.7h-11.2v5.9h30.3v-5.9h-10V53.1c0-12,3.6-25.2,14.1-25.2c5.4,0,9.2,3.4,9.2,10.2v30.1H531v5.9h30.3v-5.9h-11.1V37.3z
			"/>
		<path class="st2" d="M618.7,37.3c0-9.2-5.9-15.7-15.1-15.7c-10.3,0-16.2,8.4-18.2,20.8h-0.3l1-20.5h-1c-7.8,0.5-13.4,0.7-20.1,0.7
			v5.9h12.2v39.7H566v5.9h30.3v-5.9h-10V53.1c0-12,3.6-25.2,14.1-25.2c5.4,0,9.2,3.4,9.2,10.2v30.1h-10.1v5.9h30.3v-5.9h-11.1V37.3z
			"/>
		<rect x="444.1" y="25.9" class="st2" width="10.6" height="12.2"/>
	</g>
	<g>
		<path class="st3" d="M130.3,22.6h-23.6v5.9h14.5v15.1c0,12-3.6,25.2-14.1,25.2c-5.4,0-9.4-3.4-9.3-10.9l0.5-35.3H77.7v5.9h11.6
			l-0.5,31.2c-0.2,9.8,5.9,15.4,15,15.4c10.4,0,16.3-8.4,18.3-20.8h0.2l-1,20.5h1c7.5-0.5,12.7-0.7,19.1-0.7v-5.9h-11.1V22.6z"/>
		<polygon class="st3" points="42.5,30.5 67,10 79.2,10 79.2,4.1 42.7,4.1 42.7,10 58.2,10 24.4,38.5 24.4,10 39,10 39,4.1 
			-0.5,4.1 -0.5,10 15,10 15,68.2 -0.5,68.2 -0.5,74.1 39,74.1 39,68.2 24.4,68.2 24.4,45.6 35.8,36.1 56.7,68.2 42.7,68.2 
			42.7,74.1 79.2,74.1 79.2,68.2 67.4,68.2 		"/>
		<rect x="93.9" y="1.8" class="st3" width="9.7" height="11.7"/>
		<path class="st3" d="M198.8,37.3c0-9.2-5.9-15.7-15.1-15.7c-10.3,0-16.2,8.4-18.2,20.8h-0.3l1-20.5h-1c-7.8,0.5-13.4,0.7-20.1,0.7
			v5.9h12.2v39.7h-11.2v5.9h30.3v-5.9h-10V53.1c0-12,3.6-25.2,14.1-25.2c5.4,0,9.2,3.4,9.2,10.2v30.1h-10.1v5.9h30.3v-5.9h-11.1
			V37.3z"/>
		<rect x="113.7" y="1.8" class="st3" width="9.8" height="11.7"/>
		<path class="st3" d="M372,68.8c-1.8,0.8-3.9,1.2-6.3,1.2c-9.6,0-15.2-6.4-15.2-20.3v-2H372v-4.8h-21.3
			c1.1-11.8,7.1-15.8,13.8-15.8c3.1,0,5.6,0.9,7.5,2.4V23c-2.2-0.9-4.6-1.4-7.3-1.4c-13,0-24.6,11.2-24.6,26.9
			c0,15.8,11.6,27.1,25.3,27.1c2.4,0,4.6-0.3,6.6-0.9V68.8z"/>
		<path class="st3" d="M328,0.7h-1c-5.9,0.5-10.8,0.7-16.5,0.7h-4.7v6.1h13.1v60.7h-11.2v5.9h31v-5.9H328V0.7z"/>
		<path class="st3" d="M246.6,46.2c-4-1.3-11.4-2.8-15.5-4.1c-5.1-1.5-7-3.3-7-7.3c0-5,3.3-8.4,9.4-8.4c8.9,0,13.9,6.9,15.8,17.5
			h5.6V21.6h-5.5l-2,10.7c-2.8-6.5-7.9-10.7-15-10.7c-9.4,0-16.1,5.8-16.1,15.2c0,8,4.5,11.9,12,13.9c3,0.8,8.8,1.8,13.5,3.2
			c4.5,1.4,8,2.9,8,8.4c0,5.7-4,8.1-10.2,8.1c-11.1,0-17.6-7.9-18.6-19.2h-5.7v23.9h5.6l1.5-11.8c3.8,8.2,10.4,12.3,18.8,12.3
			c9.6,0,16.3-5.2,16.3-15.4C257.5,51.2,252.5,48,246.6,46.2z"/>
		<path class="st3" d="M297.7,60.8c0,5.4-3.3,7.8-8.1,7.8c-4.4,0-7.5-2.3-7.5-8.2V30H300v-7.4h-17.9V4h-4.3v3.6
			c0,11.1-3.4,16.2-14.8,16.2h-1.8V30h12.3c0,10.5-0.7,20.9-0.7,31.4c0,9.3,6,14.2,15.2,14.2c8.9,0,14.6-5.5,14.6-14.4v-11h-4.9
			V60.8z"/>
	</g>
</g>
</svg>
