<?xml version="1.0" encoding="utf-8"?>
<!-- Generator: Adobe Illustrator 28.1.0, SVG Export Plug-In . SVG Version: 6.00 Build 0)  -->
<svg version="1.1" id="Ebene_1" xmlns="http://www.w3.org/2000/svg" xmlns:xlink="http://www.w3.org/1999/xlink" x="0px" y="0px"
	 viewBox="0 0 359.1 96" style="enable-background:new 0 0 359.1 96;" xml:space="preserve">
<style type="text/css">
	.st0{fill:#FF5C50;}
	.st1{fill:#0000FF;}
	.st2{fill:#FF5C50;enable-background:new    ;}
	.st3{fill:#0000FF;enable-background:new    ;}
	.st4{enable-background:new    ;}
</style>
<g>
	<g class="st4">
		<path class="st2" d="M179.4,50.2v16.4c0.5-1.6,0.8-3.4,0.8-5.4l0-11L179.4,50.2z"/>
		<polygon class="st2" points="205.4,68.2 205.4,22.6 184.3,22.6 184.3,28.5 196.4,28.5 196.4,68.2 185.3,68.2 185.4,74.1 
			216.4,74.1 216.4,68.2 		"/>
		<rect x="195.5" y="0" class="st2" width="9.9" height="11.9"/>
		<path class="st2" d="M304.1,50.1l0,10.6c0,5.4-3.3,7.8-8.1,7.8c-4.4,0-7.5-2.3-7.5-8.2l0-30.4l17.9,0l0-7.4l-17.9,0l0-18.6l-4.3,0
			l0,3.6c0,11.1-3.4,16.2-14.8,16.2l-1.8,0l0,6.2l12.3,0c0,10.5-0.7,20.9-0.7,31.4c0,9.3,6,14.2,15.2,14.2c8.9,0,14.6-5.5,14.6-14.4
			l0-11L304.1,50.1z"/>
		<path class="st2" d="M348.1,46.1c-4-1.3-11.4-2.8-15.5-4.1c-5.1-1.5-7-3.3-7-7.3c0-5,3.3-8.4,9.4-8.4c8.9,0,13.9,6.9,15.8,17.5
			l5.6,0l0-22.3l-5.5,0l-2,10.7c-2.8-6.5-7.9-10.7-15-10.7c-9.4,0-16.1,5.8-16.1,15.2c0,8,4.5,11.9,12,13.9c3,0.8,8.8,1.8,13.5,3.2
			c4.5,1.4,8,2.9,8,8.4c0,5.7-4,8.1-10.2,8.1c-11.1,0-17.6-7.9-18.6-19.2l-5.7,0l0,23.9l5.6,0l1.5-11.8c3.8,8.2,10.4,12.3,18.8,12.3
			c9.6,0,16.3-5.2,16.3-15.4C359,51.1,354,47.9,348.1,46.1z"/>
		<path class="st2" d="M253,46.2c-4-1.3-11.4-2.8-15.5-4.1c-5.1-1.5-7-3.3-7-7.3c0-5,3.3-8.4,9.4-8.4c8.9,0,13.9,6.9,15.8,17.5
			l5.6,0l0-22.3l-5.5,0l-2,10.7c-2.8-6.5-7.9-10.7-15-10.7c-9.4,0-16.1,5.8-16.1,15.2c0,8,4.5,11.9,12,13.9c3,0.8,8.8,1.8,13.5,3.2
			c4.5,1.4,8,2.9,8,8.4c0,5.7-4,8.1-10.2,8.1c-11.1,0-17.6-7.9-18.6-19.2l-5.7,0l0,23.9l5.6,0l1.5-11.8c3.8,8.2,10.4,12.3,18.8,12.3
			c9.6,0,16.3-5.2,16.3-15.4C263.9,51.2,258.9,48,253,46.2z"/>
	</g>
	<g>
		<path class="st3" d="M123,21.6c-8.9,0-14.3,8.1-16.5,20.8h-0.3l1-20.5l-1,0c-7.8,0.5-13.5,0.7-20.1,0.7l0,5.9l12.2,0l0,39.7
			l-11.2,0l0,5.9l33.8,0l0-5.9l-13.5,0l0-16.4c0-10.7,4.2-24.5,12.7-24.5c3.1,0,4.7,1.9,4.7,4.9c0,1.1-0.1,2.3-0.1,3.2
			c0,2.8,2,4.3,4.7,4.3c3.5,0,5.1-2.4,5.1-6.5C134.5,26.4,130,21.6,123,21.6z"/>
		<path class="st3" d="M179.4,50.2l-4.1,0l0,10.6c0,5.4-3.3,7.8-8.1,7.8c-4.4,0-7.5-2.3-7.5-8.2l0-30.4l17.9,0l0-7.4l-17.9,0l0-18.6
			l-4.3,0l0,3.6c0,11.1-3.4,16.2-14.8,16.2l-1.8,0l0,6.2l12.3,0c0,10.5-0.7,20.9-0.7,31.4c0,9.3,6,14.2,15.2,14.2
			c6.9,0,11.9-3.3,13.7-9V50.2z"/>
		<path class="st3" d="M68.8,68.2L45.6,2.5l-9.4,0L12.9,68.3L0,68.3l0,5.9l35.8,0l0-5.9l-16.3,0l7.8-22.5l23.9,0l7.7,22.5l-16.3,0
			l0,5.9l39.2,0l0-5.9L68.8,68.2z M29.4,39.7l9.9-28.2L49,39.7L29.4,39.7z"/>
	</g>
</g>
</svg>
