<?xml version="1.0" encoding="utf-8"?>
<!-- Generator: Adobe Illustrator 28.1.0, SVG Export Plug-In . SVG Version: 6.00 Build 0)  -->
<svg version="1.1" id="Ebene_1" xmlns="http://www.w3.org/2000/svg" xmlns:xlink="http://www.w3.org/1999/xlink" x="0px" y="0px"
	 viewBox="0 0 523.4 96" style="enable-background:new 0 0 523.4 96;" xml:space="preserve">
<style type="text/css">
	.st0{fill:#FF5C50;}
	.st1{fill:#0000FF;}
	.st2{fill:#FF5C50;enable-background:new    ;}
	.st3{fill:#0000FF;enable-background:new    ;}
	.st4{enable-background:new    ;}
</style>
<g>
	<g>
		<rect x="309.1" class="st2" width="9.9" height="11.9"/>
		<path class="st2" d="M273.3,21.6c-5.5,0-10.5,2.3-13.5,6.6v5c2.4-4.2,6.3-5.8,11-5.8c8.2,0,13.7,4.9,13.7,19.7v3
			c0,14.8-5.5,19.7-13.7,19.7c-4.7,0-8.6-1.6-11-5.8v5.5c3.1,4.1,7.8,6.1,13.1,6.1c12.2,0,22-11,22-27
			C294.9,32.6,285,21.6,273.3,21.6z"/>
		<polygon class="st2" points="319,22.6 297.9,22.6 297.9,28.5 310,28.5 310,68.2 298.9,68.2 298.9,74.1 329.9,74.1 329.9,68.2 
			319,68.2 		"/>
		<rect x="384.2" class="st2" width="9.9" height="11.9"/>
		<path class="st2" d="M512.3,68.2V37.3c0-9.2-5.9-15.7-15.1-15.7c-10.3,0-16.2,8.4-18.2,20.8h-0.3l1-20.5h-1
			c-7.8,0.5-13.4,0.7-20.1,0.7v5.9h12.2v39.7h-11.2v5.9h30.3v-5.9h-10V53.1c0-12,3.6-25.2,14.1-25.2c5.4,0,9.2,3.4,9.2,10.2v30.1
			h-10.1v5.9h30.3v-5.9H512.3z"/>
		<path class="st2" d="M431.2,21.6c-13.2,0-24.7,10.9-24.7,27c0,16,11.5,27,24.7,27c13.3,0,24.9-11,24.9-27
			C456.1,32.5,444.5,21.6,431.2,21.6z M445.7,50.1c0,15-5.8,20-14.5,20c-8.5,0-14.3-4.9-14.3-20v-3c0-15,5.8-20,14.3-20
			c8.7,0,14.5,5.1,14.5,20V50.1z"/>
		<path class="st2" d="M364,60.8c0,5.4-3.3,7.8-8.1,7.8c-4.4,0-7.5-2.3-7.5-8.2V30h17.9v-7.4h-17.9V4h-4.3v3.6
			c0,11.1-3.4,16.2-14.8,16.2h-1.8V30h12.3c0,10.5-0.7,20.9-0.7,31.4c0,9.3,6,14.2,15.2,14.2c8.9,0,14.6-5.5,14.6-14.4v-11H364V60.8
			z"/>
		<polygon class="st2" points="394.1,22.6 373,22.6 373,28.5 385.1,28.5 385.1,68.2 374,68.2 374,74.1 405,74.1 405,68.2 
			394.1,68.2 		"/>
	</g>
	<g>
		<path class="st3" d="M48.7,68.5H24.9v-27h8.7c5.7,0,7.7,1.5,8,15.9h5.7V20.2h-5.7c-0.3,14.1-2.2,15.9-8,15.9h-8.7V9.7h23.3
			c10.5,0,10.8,2.1,12.5,21.9h5.7V4.1H0V10h15.5v58.2H0v5.9h67.2V43.6h-5.7C60.1,66.1,59.2,68.5,48.7,68.5z"/>
		<polygon class="st3" points="108.5,28.5 118.8,28.5 107,44.8 94.8,28.5 105.3,28.5 105.3,22.6 74,22.6 74,28.5 84.8,28.5 
			99.2,47.6 83.9,68.2 74,68.2 74,74.1 101,74.1 101,68.2 90.8,68.2 102.6,52.1 114.7,68.2 104.2,68.2 104.2,74.1 135.5,74.1 
			135.5,68.2 124.7,68.2 110.5,49.3 125.7,28.5 135.5,28.5 135.5,22.6 108.5,22.6 		"/>
		<rect x="219.4" class="st3" width="9.9" height="11.9"/>
		<polygon class="st3" points="229.3,22.6 208.2,22.6 208.2,28.5 220.3,28.5 220.3,68.2 209.2,68.2 209.2,74.1 240.2,74.1 
			240.2,68.2 229.3,68.2 		"/>
		<path class="st3" d="M259.9,64c-1.8-3.1-2.8-7.6-2.8-13.9v-3c0-6.3,1-10.8,2.8-13.9v-5c-1.2,1.7-2.1,3.8-2.6,6.1h-0.3l0.6-33.6h-1
			c-6.6,0.5-11.9,0.7-20.2,0.7v6.1h12.1v67.6h4.8l2.4-15.2h0.4c0.6,3.9,1.9,7.1,3.8,9.6V64z"/>
		<path class="st3" d="M193.4,37.3c0-9.2-5.9-15.7-15.1-15.7c-10.3,0-16.2,8.4-18.2,20.8h-0.3L161,0.7h-1
			c-7.4,0.5-13.4,0.7-21.2,0.7v6.1h13.1v60.7h-11.2v5.9H171v-5.9h-10V53.1c0-12,3.6-25.2,14.1-25.2c5.4,0,9.2,3.4,9.2,10.2v30.1
			h-10.1v5.9h30.3v-5.9h-11.1V37.3z"/>
	</g>
</g>
</svg>
