<?xml version="1.0" encoding="utf-8"?>
<!-- Generator: Adobe Illustrator 26.0.2, SVG Export Plug-In . SVG Version: 6.00 Build 0)  -->
<svg version="1.1" id="Ebene_1" xmlns="http://www.w3.org/2000/svg" xmlns:xlink="http://www.w3.org/1999/xlink" x="0px" y="0px"
	 viewBox="0 0 416.1 100.4" style="enable-background:new 0 0 416.1 100.4;" xml:space="preserve">
<g id="Ebene_2_00000007405497456208573730000014593501387545240219_">
	<g id="Ebene_1-2">
		<path d="M85,91.1V9.4L132.1,0v49.4c-3-5.7-9.7-7.5-17.1-7.5c-4.7,0-9.3,0.8-13.8,2.2v7.8h13.5c4.3,0,7.1,1.6,7.1,5.4v2.4h-13.2
			c-10.6,0-15.5,5.4-15.5,13.8c0,9.1,4.9,15.2,15.4,15.2c5.9,0,11-2.5,13.4-5.1l2.4,4.6h7.8v12.3L85,91.1z M111.4,67.3h10.3v1.4
			c0,5.7-3.5,10.5-10.4,10.5c-4.3,0-6.3-2.5-6.3-5.8S107.2,67.3,111.4,67.3z"/>
		<path d="M167,85.2h-6.6l-0.8,2.8h-3.7l5.8-16.8h4.2l5.8,16.8h-3.8L167,85.2z M166.1,82.4l-2.4-8l-2.4,8H166.1z M185.1,75.4V88
			h-2.6l-0.6-1.2c-1.1,0.9-2.6,1.4-4,1.3c-2.5,0-4.1-1.3-4.1-5.2v-7.5h3.3v7.4c0,1.4,0.5,2.3,2.6,2.3h2.1v-9.7L185.1,75.4z
			 M188.7,87.3v-3c1.4,0.8,3,1.2,4.6,1.3c1.2,0,1.7-0.3,1.7-1c0-0.9-1-1.3-2.5-1.8c-2.3-0.7-3.7-1.6-3.7-4s1.5-3.6,4.4-3.6
			c1.4,0,2.8,0.2,4.1,0.7V78h-4.1c-0.9,0-1.2,0.2-1.2,0.8s0.4,0.9,1.9,1.4c2.1,0.7,4.3,1.5,4.3,4.3c0,2.3-1.5,3.6-4.8,3.6
			C191.7,88.2,190.2,87.9,188.7,87.3L188.7,87.3z M207.1,85.5v2.4c-0.7,0.2-1.5,0.3-2.3,0.3c-2.3,0-3.4-1.2-3.4-4.1V70.4h3.2v13.7
			c0,1,0.5,1.4,1.5,1.4L207.1,85.5z M215.5,75.2c2.9,0,4.7,1.5,4.7,4.6V88h-2.5l-0.7-1.3c-1,0.9-2.3,1.5-3.7,1.5
			c-2.1,0.1-3.9-1.5-4-3.6c0-0.2,0-0.3,0-0.5c0-2.5,1.6-3.8,4.4-3.8h3.3v-0.5c0-1.2-0.6-1.7-2.1-1.7h-3.8V76
			C212.6,75.5,214,75.2,215.5,75.2L215.5,75.2z M214.2,85.4c1.5,0.1,2.7-1.1,2.8-2.6c0-0.1,0-0.2,0-0.3v-0.4h-2.8
			c-0.8-0.1-1.6,0.5-1.7,1.3c0,0.1,0,0.2,0,0.3c-0.1,0.8,0.6,1.6,1.4,1.6C214,85.5,214.1,85.5,214.2,85.4z M231.5,75.3
			c2.5,0,4.1,1.3,4.1,5.2V88h-3.2v-7.4c0-1.4-0.5-2.3-2.6-2.3h-2.1V88h-3.3V75.5h2.6l0.6,1.2C228.7,75.8,230.1,75.3,231.5,75.3
			L231.5,75.3z M250.4,70.4V88h-2.8l-0.4-1.1c-1.1,0.8-2.4,1.2-3.8,1.3c-2.7,0-4.3-2-4.3-6.3s1.9-6.6,4.6-6.6c1.3,0,2.5,0.5,3.4,1.4
			v-6.3L250.4,70.4z M242.4,81.7c0,2.2,0.5,3.5,2.6,3.5h2.1v-5.9c-0.6-0.7-1.6-1.2-2.6-1.2C243,78.1,242.4,79.5,242.4,81.7
			L242.4,81.7z M254,87.3v-3c1.4,0.8,3,1.2,4.6,1.3c1.2,0,1.7-0.3,1.7-1c0-0.9-1-1.3-2.5-1.8c-2.3-0.7-3.7-1.6-3.7-4
			s1.5-3.6,4.4-3.6c1.4,0,2.7,0.2,4,0.7V78h-4.1c-0.9,0-1.2,0.2-1.2,0.8s0.4,0.9,1.9,1.4c2.1,0.7,4.3,1.5,4.3,4.3
			c0,2.3-1.5,3.6-4.8,3.6C257,88.2,255.4,87.9,254,87.3L254,87.3z M273.7,75.2c2.7,0,4.3,2,4.3,6.3s-1.9,6.6-4.6,6.6
			c-1.3,0-2.5-0.5-3.4-1.4l-0.7,1.3h-2.6V70.4h3.2v6C271.1,75.7,272.4,75.2,273.7,75.2L273.7,75.2z M272.6,85.3
			c1.5,0,2.1-1.3,2.1-3.6s-0.5-3.5-2.6-3.5H270v5.9C270.6,84.8,271.6,85.3,272.6,85.3L272.6,85.3z M292.1,82.6h-8
			c0.1,1.9,0.9,2.8,2.8,2.8h4.3v2.1c-1.5,0.5-3.1,0.8-4.8,0.7c-3.5,0-5.4-2.3-5.4-6.3c0-4.3,2-6.7,5.5-6.7c4,0,5.6,1.8,5.6,6.7
			L292.1,82.6L292.1,82.6z M286.5,78c-1.6,0-2.2,1-2.4,2.6h4.9C289,79,288.5,78,286.5,78z M304.4,77.5l-5.6,7.7h5.9V88h-10.1v-2
			l5.8-7.8H295v-2.7h9.5L304.4,77.5z M311,73.7c-1.1,0-2-0.9-2-2s0.9-2,2-2s2,0.9,2,2S312.1,73.7,311,73.7z M312.6,75.4V88h-3.3V78
			h-2.3v-2.6H312.6z M327.3,82.6h-8c0.1,1.9,0.9,2.8,2.8,2.8h4.3v2.1c-1.5,0.5-3.1,0.8-4.8,0.7c-3.5,0-5.4-2.3-5.4-6.3
			c0-4.3,2-6.7,5.5-6.7c4,0,5.6,1.8,5.6,6.7L327.3,82.6L327.3,82.6z M321.6,78c-1.6,0-2.2,1-2.4,2.6h4.9C324.1,79,323.6,78,321.6,78
			z M337.8,75.3c2.5,0,4,1.3,4,5.2V88h-3.3v-7.4c0-1.4-0.5-2.3-2.6-2.3h-2.1V88h-3.3V70.4h3.3v6.2C335,75.8,336.4,75.3,337.8,75.3
			L337.8,75.3z M356.9,75.5V88h-2.6l-0.6-1.2c-1.1,0.9-2.6,1.4-4,1.3c-2.5,0-4-1.3-4-5.2v-7.5h3.3v7.4c0,1.4,0.5,2.3,2.6,2.3h2.1
			v-9.7L356.9,75.5z M368.3,75.3c2.5,0,4,1.3,4,5.2V88H369v-7.4c0-1.4-0.5-2.3-2.6-2.3h-2.1V88h-3.3V75.5h2.6l0.6,1.2
			C365.4,75.8,366.8,75.3,368.3,75.3L368.3,75.3z M386.9,75.5v11.8c0,3.5-2.2,5-5.4,5c-1.5,0-3-0.2-4.4-0.6v-3
			c1.2,0.5,2.6,0.8,3.9,0.8c1.9,0,2.5-0.8,2.5-2.1v-1.5c-1.1,0.7-2.3,1.1-3.6,1.2c-2.7,0-4.3-2.2-4.3-5.8c0-3.8,1.8-6.2,4.6-6.2
			c1.3,0,2.5,0.5,3.5,1.4l0.6-1.2L386.9,75.5z M378.9,81.3c0,1.7,0.4,2.9,2.6,2.9h2v-5c-0.7-0.7-1.6-1.1-2.5-1.2
			C379.5,78,378.9,79.4,378.9,81.3L378.9,81.3z M401.5,82.6h-8c0.1,1.9,0.9,2.8,2.8,2.8h4.3v2.1c-1.5,0.5-3.1,0.8-4.8,0.7
			c-3.5,0-5.4-2.3-5.4-6.3c0-4.3,2-6.7,5.5-6.7c4,0,5.6,1.8,5.6,6.7L401.5,82.6L401.5,82.6z M395.9,78c-1.6,0-2.2,1-2.4,2.6h4.9
			C398.4,79,397.9,78,395.9,78z M412.1,75.3c2.5,0,4,1.3,4,5.2V88h-3.2v-7.4c0-1.4-0.5-2.3-2.6-2.3h-2.1V88h-3.2V75.5h2.6l0.6,1.2
			C409.3,75.8,410.7,75.3,412.1,75.3L412.1,75.3z"/>
		<path d="M161.2,59.3h-3.4V42.4h3.4V59.3z M172.4,46.6c2.5,0,4,1.3,4,5.2v7.5h-3.3v-7.4c0-1.4-0.5-2.3-2.6-2.3h-2.1v9.7h-3.3V46.8
			h2.6l0.6,1.2C169.5,47.1,170.9,46.6,172.4,46.6L172.4,46.6z M179.9,58.6v-3c1.4,0.8,3,1.2,4.6,1.3c1.2,0,1.7-0.3,1.7-1
			c0-0.9-1-1.3-2.5-1.8c-2.3-0.7-3.7-1.6-3.7-4s1.5-3.5,4.4-3.5c1.4,0,2.8,0.2,4.1,0.7v2.1h-4.1c-0.9,0-1.2,0.2-1.2,0.8
			s0.4,0.9,1.9,1.4c2.1,0.7,4.3,1.5,4.3,4.3c0,2.3-1.5,3.6-4.8,3.6C183,59.5,181.4,59.2,179.9,58.6L179.9,58.6z M196.6,49.3v5.9
			c0,1,0.5,1.6,1.4,1.6h1.5v2.3c-0.8,0.2-1.7,0.3-2.6,0.3c-2.2,0-3.6-1.2-3.6-4.1v-6h-2v-2.6h2l1.2-3.4h2v3.4h2.9v2.6L196.6,49.3z
			 M206.1,45c-1.1,0-2-0.9-2-2s0.9-2,2-2s2,0.9,2,2S207.2,45,206.1,45z M207.7,46.7v12.5h-3.2v-9.9h-2.3v-2.6H207.7z M216.1,49.3
			v5.9c0,1,0.5,1.6,1.4,1.6h1.5v2.3c-0.8,0.2-1.7,0.3-2.6,0.3c-2.2,0-3.6-1.2-3.6-4.1v-6h-2v-2.6h2l1.2-3.4h2v3.4h2.9v2.6H216.1z
			 M233.5,46.8v12.5h-2.6l-0.6-1.2c-1.1,0.9-2.6,1.4-4,1.3c-2.5,0-4.1-1.3-4.1-5.2v-7.5h3.3v7.4c0,1.4,0.5,2.3,2.6,2.3h2.1v-9.7
			H233.5z M241.5,49.3v5.9c0,1,0.5,1.6,1.4,1.6h1.5v2.3c-0.8,0.2-1.7,0.3-2.6,0.3c-2.2,0-3.6-1.2-3.6-4.1v-6h-2v-2.6h2l1.2-3.4h2
			v3.4h2.9v2.6H241.5z M263.4,44.1h-2.5c-0.7,0-1.1,0.5-1.1,1.4v1.2h3v2.6h-3v9.9h-3.2v-9.9h-2v-2.6h2v-1.4c0-3,1.4-4,4-4
			c1,0,1.9,0.1,2.8,0.3L263.4,44.1L263.4,44.1z M269.1,45.1c-1,0-1.8-0.8-1.8-1.8s0.8-1.8,1.8-1.8s1.8,0.8,1.8,1.8
			S270.1,45.1,269.1,45.1z M274.3,45.1c-1,0-1.8-0.8-1.8-1.8s0.8-1.8,1.8-1.8s1.8,0.8,1.8,1.8S275.3,45.1,274.3,45.1z M277.3,46.8
			v12.5h-2.6l-0.6-1.2c-1.1,0.9-2.6,1.4-4,1.3c-2.5,0-4-1.3-4-5.2v-7.5h3.2v7.4c0,1.4,0.5,2.3,2.6,2.3h2v-9.7L277.3,46.8z M289,50
			h-4.3v9.2h-3.2V46.8h2.6l0.6,1.2c1-0.9,2.2-1.4,3.5-1.4c0.3,0,0.5,0,0.8,0V50z"/>
		<path d="M18.9,36.2c-4-0.1-7.1-3.4-7-7.4s3.4-7.1,7.4-7c3.9,0.1,7.1,3.3,7,7.3C26.2,33,22.9,36.2,18.9,36.2z M24.9,42.5V88h-12
			V51.9H0v-9.4H24.9z M76.2,32.8H64.8c-2.6,0-4.1,2-4.1,5.2v4.6h14v9.3h-14V88h-12V51.9h-11v-9.3h11v-5.1c0-11,5.2-14.4,14.8-14.4
			c4.3,0.1,8.6,0.7,12.7,1.8V32.8L76.2,32.8z"/>
	</g>
</g>
</svg>
